<svg width="26" height="26" viewBox="0 0 26 26" fill="none" xmlns="http://www.w3.org/2000/svg">
<path d="M25.5563 10.724L13.8555 0.323375C13.6183 0.114947 13.3133 0 12.9975 0C12.6817 0 12.3767 0.114947 12.1394 0.323375L0.438691 10.724C0.239825 10.9 0.099588 11.1325 0.0368348 11.3905C-0.0259183 11.6485 -0.00817865 11.9195 0.0876689 12.1671C0.181949 12.4115 0.347822 12.6216 0.563563 12.7701C0.779305 12.9186 1.03486 12.9984 1.29675 12.9992H2.59683V24.6999C2.59683 25.0447 2.7338 25.3754 2.97761 25.6192C3.22143 25.863 3.55211 26 3.89691 26H22.0981C22.4429 26 22.7736 25.863 23.0174 25.6192C23.2612 25.3754 23.3981 25.0447 23.3981 24.6999V12.9992H24.6982C24.9601 12.9984 25.2157 12.9186 25.4314 12.7701C25.6472 12.6216 25.813 12.4115 25.9073 12.1671C26.0032 11.9195 26.0209 11.6485 25.9581 11.3905C25.8954 11.1325 25.7551 10.9 25.5563 10.724ZM14.2976 23.3998H11.6974V19.4996C11.6974 19.1548 11.8344 18.8241 12.0782 18.5803C12.322 18.3365 12.6527 18.1995 12.9975 18.1995C13.3423 18.1995 13.673 18.3365 13.9168 18.5803C14.1606 18.8241 14.2976 19.1548 14.2976 19.4996V23.3998ZM20.798 23.3998H16.8977V19.4996C16.8977 18.4652 16.4868 17.4731 15.7554 16.7417C15.0239 16.0103 14.0319 15.5993 12.9975 15.5993C11.9631 15.5993 10.971 16.0103 10.2396 16.7417C9.50816 17.4731 9.09724 18.4652 9.09724 19.4996V23.3998H5.19699V12.9992H20.798V23.3998ZM4.71596 10.399L12.9975 3.04055L21.279 10.399H4.71596Z" fill="#E46A12"/>
</svg>
