<svg width="40" height="40" viewBox="0 0 40 40" fill="none" xmlns="http://www.w3.org/2000/svg">
<path d="M31.6663 6.66667H28.333V5C28.333 4.55798 28.1574 4.13405 27.8449 3.82149C27.5323 3.50893 27.1084 3.33334 26.6663 3.33334C26.2243 3.33334 25.8004 3.50893 25.4878 3.82149C25.1753 4.13405 24.9997 4.55798 24.9997 5V6.66667H14.9997V5C14.9997 4.55798 14.8241 4.13405 14.5115 3.82149C14.199 3.50893 13.775 3.33334 13.333 3.33334C12.891 3.33334 12.4671 3.50893 12.1545 3.82149C11.8419 4.13405 11.6663 4.55798 11.6663 5V6.66667H8.33301C7.00693 6.66667 5.73516 7.19345 4.79747 8.13114C3.85979 9.06882 3.33301 10.3406 3.33301 11.6667V31.6667C3.33301 32.9928 3.85979 34.2645 4.79747 35.2022C5.73516 36.1399 7.00693 36.6667 8.33301 36.6667H31.6663C32.9924 36.6667 34.2642 36.1399 35.2019 35.2022C36.1396 34.2645 36.6663 32.9928 36.6663 31.6667V11.6667C36.6663 10.3406 36.1396 9.06882 35.2019 8.13114C34.2642 7.19345 32.9924 6.66667 31.6663 6.66667ZM33.333 31.6667C33.333 32.1087 33.1574 32.5326 32.8449 32.8452C32.5323 33.1577 32.1084 33.3333 31.6663 33.3333H8.33301C7.89098 33.3333 7.46706 33.1577 7.1545 32.8452C6.84194 32.5326 6.66634 32.1087 6.66634 31.6667V20H33.333V31.6667ZM33.333 16.6667H6.66634V11.6667C6.66634 11.2246 6.84194 10.8007 7.1545 10.4882C7.46706 10.1756 7.89098 10 8.33301 10H11.6663V11.6667C11.6663 12.1087 11.8419 12.5326 12.1545 12.8452C12.4671 13.1577 12.891 13.3333 13.333 13.3333C13.775 13.3333 14.199 13.1577 14.5115 12.8452C14.8241 12.5326 14.9997 12.1087 14.9997 11.6667V10H24.9997V11.6667C24.9997 12.1087 25.1753 12.5326 25.4878 12.8452C25.8004 13.1577 26.2243 13.3333 26.6663 13.3333C27.1084 13.3333 27.5323 13.1577 27.8449 12.8452C28.1574 12.5326 28.333 12.1087 28.333 11.6667V10H31.6663C32.1084 10 32.5323 10.1756 32.8449 10.4882C33.1574 10.8007 33.333 11.2246 33.333 11.6667V16.6667Z" fill="#808080"/>
</svg>
