<svg width="32" height="32" viewBox="0 0 32 32" fill="none" xmlns="http://www.w3.org/2000/svg">
<path d="M14.6663 2.66669C12.0293 2.66669 9.4514 3.44867 7.25874 4.91376C5.06609 6.37884 3.35712 8.46123 2.34795 10.8976C1.33878 13.3339 1.07474 16.0148 1.58921 18.6012C2.10368 21.1876 3.37356 23.5634 5.23826 25.4281C7.10296 27.2928 9.47873 28.5627 12.0651 29.0772C14.6516 29.5916 17.3324 29.3276 19.7688 28.3184C22.2051 27.3092 24.2875 25.6003 25.7526 23.4076C27.2177 21.215 27.9997 18.6371 27.9997 16C27.9997 14.2491 27.6548 12.5152 26.9847 10.8976C26.3147 9.2799 25.3326 7.81004 24.0944 6.57193C22.8563 5.33382 21.3865 4.35169 19.7688 3.68163C18.1511 3.01156 16.4173 2.66669 14.6663 2.66669ZM14.6663 26.6667C12.5567 26.6667 10.4944 26.0411 8.74026 24.869C6.98614 23.697 5.61897 22.0311 4.81163 20.082C4.0043 18.1329 3.79306 15.9882 4.20464 13.9191C4.61621 11.8499 5.63211 9.94931 7.12387 8.45755C8.61563 6.96579 10.5163 5.94989 12.5854 5.53831C14.6545 5.12674 16.7992 5.33797 18.7483 6.14531C20.6974 6.95264 22.3633 8.31981 23.5354 10.0739C24.7074 11.8281 25.333 13.8904 25.333 16C25.333 18.829 24.2092 21.5421 22.2088 23.5425C20.2084 25.5429 17.4953 26.6667 14.6663 26.6667ZM14.6663 8.00002C14.3127 8.00002 13.9736 8.1405 13.7235 8.39054C13.4735 8.64059 13.333 8.97973 13.333 9.33335V15.2267L10.533 16.84C10.2762 16.9856 10.0749 17.2123 9.96072 17.4845C9.84657 17.7568 9.82601 18.0593 9.90227 18.3445C9.97853 18.6297 10.1473 18.8815 10.3821 19.0605C10.6169 19.2394 10.9045 19.3354 11.1997 19.3334C11.4332 19.335 11.6631 19.2752 11.8663 19.16L15.333 17.16L15.453 17.04L15.6663 16.8667C15.7185 16.8007 15.7632 16.7291 15.7997 16.6534C15.8431 16.5818 15.8789 16.5058 15.9063 16.4267C15.9426 16.3419 15.9651 16.2519 15.973 16.16L15.9997 16V9.33335C15.9997 8.97973 15.8592 8.64059 15.6092 8.39054C15.3591 8.1405 15.02 8.00002 14.6663 8.00002Z" fill="#808080"/>
</svg>
