<svg width="30" height="24" viewBox="0 0 30 24" fill="none" xmlns="http://www.w3.org/2000/svg">
<path fill-rule="evenodd" clip-rule="evenodd" d="M1.31802 1.31802C2.16193 0.474105 3.30653 0 4.5 0H25.5C26.6935 0 27.8381 0.474106 28.682 1.31802C29.5259 2.16193 30 3.30653 30 4.5V9C30 9.39782 29.842 9.77936 29.5607 10.0607C29.2794 10.342 28.8978 10.5 28.5 10.5C28.1022 10.5 27.7206 10.658 27.4393 10.9393C27.158 11.2206 27 11.6022 27 12C27 12.3978 27.158 12.7794 27.4393 13.0607C27.7206 13.342 28.1022 13.5 28.5 13.5C29.3284 13.5 30 14.1716 30 15V19.5C30 20.6935 29.5259 21.8381 28.682 22.682C27.8381 23.5259 26.6935 24 25.5 24H4.5C3.30653 24 2.16193 23.5259 1.31802 22.682C0.474106 21.8381 0 20.6935 0 19.5V15C0 14.1716 0.671573 13.5 1.5 13.5C1.89782 13.5 2.27936 13.342 2.56066 13.0607C2.84196 12.7794 3 12.3978 3 12C3 11.6022 2.84196 11.2206 2.56066 10.9393C2.27936 10.658 1.89782 10.5 1.5 10.5C0.671573 10.5 0 9.82843 0 9V4.5C0 3.30653 0.474105 2.16193 1.31802 1.31802ZM21 21V19.5C21 18.6716 20.3284 18 19.5 18C18.6716 18 18 18.6716 18 19.5V21H4.5C4.10218 21 3.72064 20.842 3.43934 20.5607C3.15803 20.2794 3 19.8978 3 19.5V16.2426C3.62686 16.021 4.20287 15.6611 4.68198 15.182C5.52589 14.3381 6 13.1935 6 12C6 10.8065 5.52589 9.66193 4.68198 8.81802C4.20287 8.33891 3.62686 7.979 3 7.75736V4.5C3 4.10217 3.15804 3.72064 3.43934 3.43934C3.72064 3.15804 4.10217 3 4.5 3H18V4.5C18 5.32843 18.6716 6 19.5 6C20.3284 6 21 5.32843 21 4.5V3H25.5C25.8978 3 26.2794 3.15803 26.5607 3.43934C26.842 3.72064 27 4.10218 27 4.5V7.75736C26.3731 7.979 25.7971 8.33891 25.318 8.81802C24.4741 9.66193 24 10.8065 24 12C24 13.1935 24.4741 14.3381 25.318 15.182C25.7971 15.6611 26.3731 16.021 27 16.2426V19.5C27 19.8978 26.842 20.2794 26.5607 20.5607C26.2794 20.842 25.8978 21 25.5 21H21ZM19.5 9C20.3284 9 21 9.67157 21 10.5V13.5C21 14.3284 20.3284 15 19.5 15C18.6716 15 18 14.3284 18 13.5V10.5C18 9.67157 18.6716 9 19.5 9Z" fill="#E46A12"/>
</svg>
