<svg width="26" height="26" viewBox="0 0 26 26" fill="none" xmlns="http://www.w3.org/2000/svg">
<path d="M25.9999 4.00849C26.001 3.21597 25.7668 2.44097 25.3269 1.78167C24.8871 1.12237 24.2613 0.608449 23.5291 0.305019C22.7968 0.00158927 21.9909 -0.0776924 21.2135 0.0772194C20.4361 0.232131 19.7222 0.614264 19.1622 1.1752L15.5094 4.82729L7.07273 2.01999C6.84811 1.94941 6.60854 1.94114 6.37958 1.99608C6.15063 2.05101 5.9409 2.16709 5.77279 2.33191L2.67892 5.39914C2.53232 5.54741 2.42355 5.72875 2.36179 5.92788C2.30003 6.127 2.28708 6.33805 2.32405 6.54323C2.36101 6.74841 2.4468 6.94168 2.57418 7.10675C2.70155 7.27181 2.86678 7.40381 3.0559 7.49162L9.78962 10.5458L6.40976 13.925L4.18685 12.8073C3.94685 12.6774 3.67205 12.6264 3.40141 12.6613C3.13076 12.6963 2.87799 12.8156 2.67892 13.0022L0.378015 15.3546C0.135899 15.5982 0 15.9276 0 16.2709C0 16.6143 0.135899 16.9437 0.378015 17.1872L8.81466 25.6221C9.05822 25.8641 9.3877 26 9.73112 26C10.0745 26 10.404 25.8641 10.6476 25.6221L13.0005 23.3216C13.1956 23.1286 13.3246 22.8788 13.3689 22.6079C13.4133 22.3371 13.3708 22.0592 13.2475 21.814L12.1295 19.5916L15.5094 16.2124L18.5643 22.9447C18.6521 23.1338 18.7841 23.299 18.9492 23.4264C19.1143 23.5537 19.3076 23.6395 19.5128 23.6764C19.7181 23.7134 19.9292 23.7005 20.1283 23.6387C20.3275 23.577 20.5089 23.4682 20.6572 23.3216L23.725 20.2544C23.8899 20.0863 24.006 19.8766 24.0609 19.6477C24.1159 19.4188 24.1076 19.1793 24.037 18.9547L21.2291 10.5199L24.83 6.84178C25.2034 6.47081 25.4991 6.02922 25.7 5.54277C25.9008 5.05632 26.0028 4.53476 25.9999 4.00849ZM22.9841 5.00924L18.7722 9.22018C18.6074 9.38826 18.4913 9.59795 18.4363 9.82685C18.3814 10.0558 18.3897 10.2953 18.4603 10.5199L21.2681 18.9417L20.0982 20.1114L17.0433 13.3921C16.9566 13.2013 16.825 13.0343 16.6598 12.9053C16.4946 12.7763 16.3006 12.6891 16.0944 12.6513C15.8865 12.6134 15.6724 12.6267 15.4708 12.6901C15.2692 12.7535 15.0861 12.8651 14.9374 13.0152L9.58163 18.4219C9.38935 18.6139 9.26211 18.8614 9.21781 19.1295C9.1735 19.3976 9.21436 19.6728 9.33464 19.9165L10.4006 22.0999L9.67262 22.8278L3.1339 16.2774L3.90087 15.6016L6.12377 16.7193C6.3675 16.8396 6.6428 16.8804 6.91095 16.8361C7.1791 16.7918 7.42663 16.6646 7.61871 16.4724L13.0005 11.0657C13.1499 10.9175 13.261 10.7353 13.3244 10.5348C13.3878 10.3342 13.4016 10.1212 13.3645 9.9141C13.3274 9.70702 13.2406 9.51203 13.1116 9.34589C12.9825 9.17975 12.815 9.04741 12.6235 8.96025L5.85079 5.90601L7.02074 4.73631L15.4444 7.5436C15.669 7.61419 15.9086 7.62245 16.1375 7.56751C16.3665 7.51258 16.5762 7.3965 16.7443 7.23168L20.9562 3.02074C21.0857 2.8883 21.2404 2.78308 21.4112 2.71124C21.5819 2.6394 21.7653 2.60239 21.9506 2.60239C22.1359 2.60239 22.3193 2.6394 22.4901 2.71124C22.6608 2.78308 22.8155 2.8883 22.9451 3.02074C23.0807 3.14635 23.1879 3.29942 23.2596 3.46975C23.3314 3.64008 23.3659 3.82374 23.3611 4.00849C23.3681 4.192 23.3384 4.37507 23.2736 4.54693C23.2089 4.71879 23.1105 4.87597 22.9841 5.00924Z" fill="#E46A12"/>
</svg>
