<svg width="25" height="20" viewBox="0 0 25 20" fill="none" xmlns="http://www.w3.org/2000/svg">
<path d="M12.8584 9.92256C13.4655 9.397 13.9525 8.74697 14.2863 8.01659C14.6201 7.28621 14.7928 6.49258 14.7928 5.68954C14.7928 4.18058 14.1934 2.73343 13.1264 1.66643C12.0594 0.599432 10.6122 2.03584e-07 9.10327 2.03584e-07C7.59431 2.03584e-07 6.14715 0.599432 5.08016 1.66643C4.01316 2.73343 3.41373 4.18058 3.41373 5.68954C3.41372 6.49258 3.58646 7.28621 3.92024 8.01659C4.25401 8.74697 4.74101 9.397 5.34817 9.92256C3.75526 10.6439 2.40379 11.8087 1.45536 13.2777C0.506933 14.7468 0.00167484 16.4579 0 18.2065C0 18.5083 0.119886 18.7978 0.333286 19.0112C0.546685 19.2246 0.836117 19.3444 1.13791 19.3444C1.4397 19.3444 1.72913 19.2246 1.94253 19.0112C2.15593 18.7978 2.27582 18.5083 2.27582 18.2065C2.27582 16.3958 2.99514 14.6592 4.27553 13.3788C5.55593 12.0984 7.29252 11.3791 9.10327 11.3791C10.914 11.3791 12.6506 12.0984 13.931 13.3788C15.2114 14.6592 15.9307 16.3958 15.9307 18.2065C15.9307 18.5083 16.0506 18.7978 16.264 19.0112C16.4774 19.2246 16.7668 19.3444 17.0686 19.3444C17.3704 19.3444 17.6599 19.2246 17.8733 19.0112C18.0867 18.7978 18.2065 18.5083 18.2065 18.2065C18.2049 16.4579 17.6996 14.7468 16.7512 13.2777C15.8027 11.8087 14.4513 10.6439 12.8584 9.92256ZM9.10327 9.10327C8.4281 9.10327 7.76809 8.90306 7.20671 8.52795C6.64532 8.15285 6.20778 7.6197 5.9494 6.99592C5.69102 6.37214 5.62342 5.68576 5.75514 5.02356C5.88686 4.36136 6.21198 3.75309 6.6894 3.27568C7.16682 2.79826 7.77509 2.47313 8.43729 2.34141C9.09948 2.20969 9.78587 2.2773 10.4096 2.53567C11.0334 2.79405 11.5666 3.23159 11.9417 3.79298C12.3168 4.35436 12.517 5.01437 12.517 5.68954C12.517 6.59492 12.1573 7.46321 11.5171 8.10341C10.8769 8.74361 10.0086 9.10327 9.10327 9.10327ZM20.1865 9.4674C20.9147 8.64734 21.3904 7.63429 21.5563 6.55019C21.7222 5.46608 21.5713 4.35714 21.1216 3.35683C20.6719 2.35652 19.9428 1.5075 19.0218 0.911946C18.1009 0.316396 17.0274 -0.000293125 15.9307 2.03584e-07C15.6289 2.03584e-07 15.3395 0.119887 15.1261 0.333286C14.9127 0.546685 14.7928 0.836117 14.7928 1.13791C14.7928 1.4397 14.9127 1.72913 15.1261 1.94253C15.3395 2.15593 15.6289 2.27582 15.9307 2.27582C16.8361 2.27582 17.7044 2.63548 18.3446 3.27568C18.9848 3.91587 19.3444 4.78417 19.3444 5.68954C19.3428 6.28722 19.1843 6.874 18.8848 7.3912C18.5853 7.9084 18.1552 8.33789 17.6376 8.63673C17.4689 8.73404 17.328 8.87303 17.2284 9.04039C17.1287 9.20775 17.0737 9.39787 17.0686 9.59257C17.0639 9.78575 17.1084 9.97695 17.198 10.1482C17.2876 10.3194 17.4193 10.465 17.5807 10.5712L18.0245 10.867L18.1724 10.9467C19.544 11.5972 20.7012 12.6262 21.5076 13.9124C22.314 15.1986 22.736 16.6885 22.724 18.2065C22.724 18.5083 22.8439 18.7978 23.0573 19.0112C23.2707 19.2246 23.5602 19.3444 23.8619 19.3444C24.1637 19.3444 24.4532 19.2246 24.6666 19.0112C24.88 18.7978 24.9999 18.5083 24.9999 18.2065C25.0092 16.4603 24.5718 14.7408 23.7293 13.2112C22.8869 11.6816 21.6673 10.3929 20.1865 9.4674Z" fill="#808080"/>
</svg>
