<svg width="1173" height="332" viewBox="0 0 1173 332" fill="none" xmlns="http://www.w3.org/2000/svg">
<path d="M855.504 331.404C843.665 334.205 823.474 307.166 835.661 290.388C847.847 273.609 867.342 290.388 867.342 290.388C867.342 290.388 820.03 267.611 844.025 238.438C866.304 211.347 886.844 284.325 886.844 284.325C886.844 284.325 856.078 227.735 884.395 220.429C911.199 213.514 906.339 254.492 906.339 254.492C906.339 254.492 922.299 230.254 939.211 250.762C956.124 271.27 943.589 288.984 943.589 288.984C943.589 288.984 969.703 278.73 975.619 301.103C981.535 323.476 951.941 331.398 951.941 331.398H855.504V331.404Z" fill="#007D6B"/>
<path d="M863.825 263.996C853.941 268.047 847.847 261.862 852.023 252.505C856.2 243.148 870.603 261.215 863.825 263.996Z" fill="#669E51"/>
<path d="M858.184 309.493C846.083 314.453 838.634 306.884 843.744 295.432C848.855 283.979 866.487 306.089 858.184 309.493Z" fill="#669E51"/>
<path d="M911.718 272.635C909.184 259.215 914.099 251.377 920.87 257.427C927.641 263.471 913.458 281.845 911.718 272.635Z" fill="#669E51"/>
<path d="M885.018 241.213C883.656 234.016 886.294 229.818 889.927 233.054C893.56 236.297 885.952 246.148 885.018 241.213Z" fill="#669E51"/>
<path d="M958.413 303.065C958.871 295.669 962.376 292.836 965.032 297.476C967.681 302.116 958.102 308.14 958.413 303.065Z" fill="#669E51"/>
<path d="M924.979 288.728C925.437 281.332 928.941 278.499 931.591 283.139C934.241 287.779 924.661 293.804 924.979 288.728Z" fill="#669E51"/>
<g style="mix-blend-mode:multiply" opacity="0.5">
<path d="M975.619 301.103C969.702 278.73 943.589 288.984 943.589 288.984C943.589 288.984 956.123 271.27 939.211 250.762C936.805 247.846 934.418 245.859 932.098 244.552C945.506 260.433 943.577 288.997 922.702 307.762C901.808 326.54 879.553 294.361 876.971 311.037C874.388 327.719 851.462 321.163 833.34 311.037C837.205 322.996 848.024 333.167 855.516 331.398H951.953C951.953 331.398 981.547 323.477 975.631 301.103H975.619Z" fill="#3D823D"/>
</g>
<path d="M321.18 313.754C315.385 296.835 299.938 307.525 299.938 307.525C321.18 282.165 314.097 237.835 284.491 238.816C273.33 239.187 268.024 249.191 265.949 260.439C257.621 237.053 239.463 213.866 220.34 236.925C212.58 246.282 209.96 255.318 210.443 263.65C204.52 259.67 198.708 258.843 195.276 262.195C191.326 266.04 191.625 274.301 195.392 282.87C181.685 281.229 170.36 285.671 167.887 294.765C164.718 306.416 177.253 321.24 195.887 327.879C204.075 330.795 212.073 331.648 218.74 330.699C221.341 331.071 224.156 331.141 227.099 330.949C227.166 331.02 227.209 331.071 227.209 331.071H301.868C301.868 331.071 326.968 330.667 321.174 313.748L321.18 313.754Z" fill="#6FCD81"/>
<g style="mix-blend-mode:multiply" opacity="0.5">
<path d="M321.18 313.754C315.385 296.835 299.938 307.525 299.938 307.525C321.18 282.165 314.097 237.835 284.491 238.816C273.33 239.188 268.024 249.192 265.948 260.439C260.551 245.295 251.039 230.254 239.811 227.78C255.087 234.817 260.148 271.61 253.176 289.683C246.197 307.756 217.928 293.047 217.189 304.398C216.457 315.748 201.034 324.156 179.359 318.702C183.908 322.413 189.543 325.617 195.881 327.88C204.068 330.796 212.067 331.648 218.734 330.699C221.335 331.071 224.15 331.142 227.093 330.949C227.16 331.02 227.202 331.071 227.202 331.071H301.862C301.862 331.071 326.962 330.667 321.167 313.748L321.18 313.754Z" fill="#13D499"/>
</g>
<path d="M105.207 331.711C105.207 331.711 89.6009 315.273 105.207 306.409C110.848 303.205 121.093 310.626 121.093 310.626C121.093 310.626 68.2192 279.069 98.686 242.321C125.227 210.315 149.814 272.135 146.145 291.24C142.481 310.338 131.479 245.051 159.589 244.115C187.699 243.18 194.422 285.273 174.255 309.351C174.255 309.351 188.92 299.199 194.421 315.266C199.923 331.333 176.086 331.711 176.086 331.711H105.201H105.207Z" fill="#007D6B"/>
<g style="mix-blend-mode:multiply" opacity="0.5">
<path d="M174.255 309.357C192.559 287.503 188.707 250.813 166.824 244.923C183.395 255.991 180.849 292.124 168.772 302.532C151.084 317.779 141.505 286.016 130.521 310.082C125.288 321.541 106.654 323.239 98.9731 321.265C100.731 327.007 105.207 331.718 105.207 331.718H176.093C176.093 331.718 199.923 331.333 194.428 315.273C188.927 299.212 174.261 309.357 174.261 309.357H174.255Z" fill="#3D823D"/>
</g>
<path d="M460.533 330.43C460.533 330.43 443.84 312.838 460.533 303.353C466.571 299.924 477.531 307.871 477.531 307.871C477.531 307.871 415.681 267.322 453.554 234.784C482.073 210.283 508.26 266.688 504.34 287.125C500.42 307.563 488.649 237.707 518.725 236.707C548.807 235.707 556 280.749 534.416 306.506C534.416 306.506 550.108 295.643 555.993 312.831C561.879 330.02 536.376 330.43 536.376 330.43H460.527H460.533Z" fill="#007D6B"/>
<g style="mix-blend-mode:multiply" opacity="0.5">
<path d="M553.307 237.476C545.046 232.817 539.777 237.271 536.517 243.225C533.445 240.328 529.703 238.277 525.343 237.316C549.118 256.312 531.748 293.432 509.121 281.473C504.316 278.928 514.262 307.954 505.451 310.691C496.641 313.427 489.986 275.993 470.949 288.24C460.63 294.874 462.859 276.012 452.785 266.694L442.955 268.251C449.335 287.612 471.987 304.051 476.67 307.288C473.995 305.532 465.564 300.501 460.533 303.359C443.84 312.844 460.533 330.436 460.533 330.436H536.382C536.382 330.436 561.885 330.026 555.999 312.838C550.114 295.649 534.422 306.512 534.422 306.512C545.632 293.13 549.064 274.551 545.565 259.92C555.255 255.337 564.285 243.673 553.313 237.482L553.307 237.476Z" fill="#008F6F"/>
</g>
<path d="M449.842 309.024C446.215 316.446 433.643 316.292 421.774 308.685C409.899 301.077 403.219 288.888 406.846 281.473C410.473 274.051 423.044 274.199 434.913 281.812C446.789 289.42 453.468 301.603 449.842 309.031V309.024Z" fill="#77CC69"/>
<path d="M433.345 318.945C435.091 328.686 449.152 333.621 464.739 329.955C480.333 326.29 491.555 315.414 489.809 305.672C488.057 295.924 474.002 290.996 458.408 294.662C442.814 298.328 431.592 309.204 433.345 318.951V318.945Z" fill="#90CC5C"/>
<path d="M454.415 311.934C461.229 309.505 463.604 295.95 459.721 281.659C455.831 267.367 447.155 257.754 440.335 260.182C433.522 262.611 431.146 276.166 435.036 290.458C438.925 304.75 447.601 314.363 454.415 311.934Z" fill="#77CC69"/>
<path d="M444.292 319.073C445.049 310.947 435.115 303.077 422.116 301.494C409.117 299.911 397.962 305.217 397.211 313.344C396.454 321.47 406.382 329.34 419.387 330.923C432.386 332.506 443.541 327.2 444.298 319.073H444.292Z" fill="#77CC69"/>
<path d="M531.767 258.215C531.767 258.215 535.925 227.671 553.307 237.476C570.69 247.282 537.885 270.828 531.767 258.215Z" fill="#669E51"/>
<path d="M457.449 243.193C447.302 241.347 434.358 219.07 452.559 211.463C469.099 204.547 467.597 245.038 457.449 243.193Z" fill="#669E51"/>
<g style="mix-blend-mode:multiply" opacity="0.5">
<path d="M419.381 330.924C427.263 331.885 434.449 330.302 439.071 327.097C444.933 331.045 454.494 332.365 464.739 329.956C480.333 326.29 491.555 315.414 489.809 305.673C488.179 296.585 475.857 291.695 461.564 294.041C461.479 290.163 460.887 285.946 459.72 281.659C456.039 268.123 448.059 258.792 441.434 259.914C455.813 264.105 458.792 303.609 435.817 301.539C430.737 301.084 443.4 313.972 431.842 322.246C420.278 330.52 400.631 319.721 397.218 313.338C396.461 321.464 406.388 329.334 419.393 330.917L419.381 330.924Z" fill="#90CC5C"/>
</g>
<path d="M461.577 302.898C468.739 298.54 479.387 301.097 481.096 306.98C482.812 312.863 471.242 322.624 464.452 319.868C460.307 318.189 473.507 317.362 470.845 310.095C469.239 305.711 457.223 305.545 461.571 302.898H461.577Z" fill="#90CC5C"/>
<g style="mix-blend-mode:multiply" opacity="0.5">
<path d="M458.2 211.021C465.393 226.017 455.392 238.316 447.418 235.534C450.184 239.54 453.981 242.558 457.449 243.193C466.254 244.795 468.543 214.565 458.2 211.021Z" fill="#7EB24D"/>
</g>
<g style="mix-blend-mode:multiply" opacity="0.5">
<path d="M541.835 237.046C533.971 242.103 531.767 258.215 531.767 258.215C535.436 265.777 548.698 260.336 554.98 252.652C543.929 260.253 537.885 250.088 541.835 237.046Z" fill="#7EB24D"/>
</g>
<path d="M96.6286 301.705C96.6286 318.362 75.027 331.865 48.3761 331.865C21.7252 331.865 0.123688 318.362 0.123688 301.705C0.123688 285.049 21.7252 271.545 48.3761 271.545C75.027 271.545 96.6286 285.049 96.6286 301.705Z" fill="#77CC69"/>
<path d="M121.216 307.813C121.216 319.278 106.349 328.571 88.0013 328.571C69.654 328.571 54.787 319.278 54.787 307.813C54.787 296.348 69.654 287.048 88.0013 287.048C106.349 287.048 121.216 296.341 121.216 307.813Z" fill="#77CC69"/>
<path d="M94.0336 289.779C90.5534 302.564 71.156 307.018 50.6962 299.725C30.2425 292.432 16.4805 276.153 19.9546 263.368C23.4348 250.582 42.8383 246.128 63.292 253.421C83.7457 260.715 97.5077 276.993 94.0336 289.779Z" fill="#77CC69"/>
<path d="M101.08 261.926C105.824 263.464 107.68 272.769 105.219 282.716C102.759 292.662 96.9216 299.481 92.1776 297.943C87.4336 296.405 85.5836 287.099 88.038 277.153C90.4986 267.206 96.3355 260.387 101.08 261.926Z" fill="#90CC89"/>
<g style="mix-blend-mode:multiply" opacity="0.5">
<path d="M88.0075 291.092C70.6737 294.034 62.2297 278.48 56.9972 285.209C51.7647 291.932 57.5284 305.672 44.6761 312.453C24.7719 322.951 3.48786 306.653 0.477806 298.168C0.258005 299.328 0.135895 300.507 0.135895 301.705C0.135895 318.362 21.7375 331.865 48.3883 331.865C58.1878 331.865 67.3034 330.032 74.9171 326.892C78.9346 327.975 83.3611 328.571 88.0136 328.571C106.355 328.571 121.228 319.278 121.228 307.813C121.228 299.699 113.779 292.675 102.93 289.266C103.845 287.311 104.633 285.113 105.225 282.722C107.686 272.776 105.83 263.47 101.086 261.932C104.322 270.597 106.587 287.946 88.0136 291.099L88.0075 291.092Z" fill="#7EB24D"/>
</g>
<path d="M815.005 311.78C811.323 329.046 790.79 335.057 769.14 325.207C747.49 315.363 732.922 293.387 736.609 276.128C740.291 258.863 760.824 252.851 782.475 262.695C804.125 272.539 818.687 294.515 815.005 311.774V311.78Z" fill="#77CC69"/>
<path d="M776.381 311.78C780.063 329.046 800.596 335.057 822.246 325.207C843.897 315.363 858.465 293.387 854.783 276.128C851.101 258.863 830.568 252.851 808.918 262.695C787.267 272.539 772.706 294.515 776.387 311.774L776.381 311.78Z" fill="#77CC69"/>
<path d="M802.489 302.949C810.286 299.405 812.996 279.627 808.552 258.786C804.107 237.938 794.179 223.909 786.382 227.459C778.585 231.003 775.875 250.781 780.319 271.622C784.764 292.47 794.692 306.499 802.489 302.949Z" fill="#77CC69"/>
<g style="mix-blend-mode:multiply" opacity="0.5">
<path d="M840.24 259.843C842.834 310.114 809.022 273.449 794.435 280.665C777.45 289.073 778.182 318.74 743.411 303.5C749.297 312.357 758.339 320.297 769.14 325.207C778.653 329.532 787.945 330.795 795.693 329.385C803.441 330.789 812.734 329.526 822.24 325.207C843.891 315.363 858.459 293.387 854.777 276.128C853.061 268.091 847.67 262.534 840.24 259.843Z" fill="#90CC5C"/>
</g>
<path d="M1073.72 330.866C1073.72 330.866 1058.12 314.427 1073.72 305.564C1079.36 302.359 1089.61 309.781 1089.61 309.781C1089.61 309.781 1036.74 278.224 1067.2 241.475C1093.74 209.469 1118.33 271.289 1114.66 290.394C1111 309.492 1100 244.205 1128.11 243.27C1156.22 242.334 1162.94 284.427 1142.77 308.505C1142.77 308.505 1157.44 298.354 1162.94 314.421C1168.44 330.488 1144.6 330.866 1144.6 330.866H1073.72H1073.72Z" fill="#007D6B"/>
<g style="mix-blend-mode:multiply" opacity="0.5">
<path d="M1142.78 308.505C1161.08 286.651 1157.23 249.961 1135.35 244.071C1151.92 255.139 1149.37 291.272 1137.29 301.68C1119.61 316.927 1110.03 285.164 1099.04 309.23C1093.81 320.689 1075.18 322.387 1067.5 320.413C1069.25 326.155 1073.73 330.866 1073.73 330.866H1144.61C1144.61 330.866 1168.44 330.481 1162.95 314.421C1157.45 298.36 1142.78 308.505 1142.78 308.505H1142.78Z" fill="#3D823D"/>
</g>
<path d="M1089.57 300.212C1089.57 316.869 1067.97 330.372 1041.31 330.372C1014.66 330.372 993.062 316.869 993.062 300.212C993.062 283.556 1014.66 270.052 1041.31 270.052C1067.97 270.052 1089.57 283.556 1089.57 300.212Z" fill="#77CC69"/>
<path d="M1114.16 306.32C1114.16 317.785 1099.29 327.078 1080.95 327.078C1062.6 327.078 1047.73 317.785 1047.73 306.32C1047.73 294.854 1062.6 285.555 1080.95 285.555C1099.29 285.555 1114.16 294.848 1114.16 306.32Z" fill="#77CC69"/>
<path d="M1086.97 288.292C1083.49 301.077 1064.09 305.532 1043.63 298.238C1023.18 290.945 1009.42 274.667 1012.89 261.881C1016.37 249.095 1035.78 244.641 1056.23 251.934C1076.68 259.228 1090.45 275.506 1086.97 288.292Z" fill="#77CC69"/>
<path d="M1094.02 260.439C1098.76 261.977 1100.62 271.283 1098.16 281.229C1095.7 291.176 1089.86 297.995 1085.12 296.456C1080.37 294.918 1078.52 285.613 1080.98 275.666C1083.44 265.72 1089.27 258.901 1094.02 260.439Z" fill="#90CC89"/>
<g style="mix-blend-mode:multiply" opacity="0.5">
<path d="M1080.95 289.606C1063.61 292.547 1055.17 276.993 1049.94 283.722C1044.7 290.445 1050.47 304.186 1037.61 310.966C1017.71 321.464 996.426 305.166 993.416 296.681C993.196 297.841 993.074 299.02 993.074 300.219C993.074 316.875 1014.68 330.379 1041.33 330.379C1051.13 330.379 1060.24 328.546 1067.86 325.405C1071.87 326.488 1076.3 327.084 1080.95 327.084C1099.29 327.084 1114.17 317.792 1114.17 306.326C1114.17 298.213 1106.72 291.189 1095.87 287.779C1096.78 285.824 1097.57 283.626 1098.16 281.236C1100.62 271.289 1098.77 261.983 1094.02 260.445C1097.26 269.11 1099.52 286.459 1080.95 289.612L1080.95 289.606Z" fill="#7EB24D"/>
</g>
<path d="M192.877 162.884C138.58 163.204 85.6812 163.646 33.6678 164.172C32.5138 165.64 30.9202 167.03 29.0519 168.351C82.1644 167.806 136.235 167.357 191.705 167.024C192.016 165.652 192.437 164.268 192.871 162.884H192.877Z" fill="url(#paint0_linear_150_508)"/>
<path d="M388.255 161.602C333.959 161.922 281.06 162.365 229.046 162.89C227.892 164.358 226.299 165.749 224.431 167.069C277.543 166.524 331.614 166.075 387.083 165.742C387.395 164.371 387.816 162.986 388.249 161.602H388.255Z" fill="url(#paint1_linear_150_508)"/>
<path d="M776.009 160.987C721.712 161.307 668.813 161.749 616.8 162.275C615.646 163.743 614.052 165.133 612.184 166.454C665.296 165.909 719.367 165.46 774.837 165.127C775.148 163.755 775.569 162.371 776.003 160.987H776.009Z" fill="url(#paint2_linear_150_508)"/>
<path d="M587.481 161.685C533.184 162.006 480.285 162.448 428.272 162.973C427.118 164.441 425.524 165.832 423.656 167.152C476.768 166.607 530.839 166.158 586.308 165.825C586.62 164.454 587.041 163.069 587.475 161.685H587.481Z" fill="url(#paint3_linear_150_508)"/>
<path d="M978.146 161.576C923.849 161.897 870.95 162.339 818.937 162.864C817.783 164.332 816.189 165.723 814.321 167.043C867.433 166.498 921.504 166.05 976.973 165.716C977.285 164.345 977.706 162.96 978.14 161.576H978.146Z" fill="url(#paint4_linear_150_508)"/>
<path d="M1172.3 160.294C1118.01 160.615 1065.11 161.057 1013.09 161.583C1011.94 163.05 1010.35 164.441 1008.48 165.761C1061.59 165.216 1115.66 164.768 1171.13 164.435C1171.44 163.063 1171.86 161.679 1172.3 160.294H1172.3Z" fill="url(#paint5_linear_150_508)"/>
<path d="M449.562 6.54584C448.591 6.00109 447.4 6.59072 446.521 7.07779C445.764 7.50077 445.062 8.04552 444.439 8.67358C444.445 8.60949 444.457 8.54541 444.463 8.48133C444.586 7.16751 444.616 5.84086 444.549 4.52704C444.5 3.52086 444.451 2.46983 444.024 1.54696C443.688 0.822757 443.102 0.233128 442.308 0.16904C441.356 0.0921337 440.611 0.77146 440.116 1.55975C438.92 3.44395 438.437 5.96906 438.517 8.19933C438.553 9.1927 438.718 10.1604 438.968 11.1153C438.706 10.7116 438.437 10.3078 438.15 9.91048C437.503 9.01325 436.819 8.14803 436.087 7.3277C435.458 6.62273 434.743 5.89855 433.791 5.78319C432.1 5.57811 430.836 7.39182 430.897 9.03889C430.97 11.0769 432.698 12.5189 434.218 13.4866C435.952 14.5889 437.833 15.3132 439.817 15.4926C440.006 15.8899 440.196 16.2937 440.373 16.7038C440.66 17.3704 441.685 17.0243 441.661 16.3386C441.661 16.3258 441.661 16.3193 441.661 16.3065C442.009 16.55 442.589 16.4155 442.778 15.9156C442.845 15.7361 442.9 15.5439 442.962 15.3644C443.413 15.1914 443.853 14.9799 444.164 14.8517C446.069 14.0827 448.011 13.0764 449.317 11.3781C450.258 10.154 451.406 7.56484 449.568 6.53943L449.562 6.54584ZM440.226 5.03337C440.476 4.01436 440.886 2.50828 441.71 1.82895C442.632 1.0727 442.992 2.68133 443.071 3.35425C443.236 4.70011 443.218 6.10362 443.145 7.45589C443.077 8.66075 442.919 9.8528 442.687 11.032C442.137 12.0382 441.753 13.1277 441.551 14.2685C441.49 14.198 441.398 14.1596 441.313 14.1724C440.867 12.4035 440.116 10.718 439.945 8.87867C439.823 7.59049 439.915 6.2895 440.226 5.03337ZM435.134 12.3907C433.773 11.5576 431.257 9.66695 432.643 7.75071C433.309 6.83424 434.139 7.30849 434.78 7.98142C435.598 8.83379 436.349 9.78231 437.039 10.75C437.839 11.8716 438.553 13.0508 439.2 14.2749C437.79 13.7686 436.41 13.1726 435.134 12.3907ZM448.163 10.4937C447.596 11.1986 446.893 11.7626 446.136 12.2305C445.385 12.6983 444.586 13.0765 443.774 13.4097C443.694 13.4418 443.615 13.4674 443.535 13.4994C443.706 12.8778 443.859 12.2433 443.987 11.6088C444.207 11.2243 444.451 10.859 444.726 10.5129C445.306 9.78872 445.984 9.15423 446.753 8.66075C447.229 8.35313 448.835 7.28285 449.085 8.21854C449.293 8.9876 448.591 9.96174 448.157 10.5001L448.163 10.4937Z" fill="white"/>
<path d="M423.485 35.9946L459.245 35.9946C463.291 35.9946 466.572 32.5514 466.572 28.304V22.1515C466.572 17.9041 463.291 14.4609 459.245 14.4609L423.485 14.4609C419.438 14.4609 416.158 17.9041 416.158 22.1515V28.304C416.158 32.5514 419.438 35.9946 423.485 35.9946Z" fill="#FFAF40"/>
<path d="M467.207 21.9722C466.389 21.7864 465.625 21.6197 464.777 21.6262H462.212C460.558 21.639 458.897 21.639 457.242 21.6454C453.878 21.6518 450.508 21.6582 447.144 21.671C440.409 21.6838 433.681 21.7159 426.946 21.7415C425.023 21.7479 423.1 21.7543 421.177 21.7864C420.267 21.7992 419.357 21.8056 418.454 21.8248C417.581 21.8441 416.579 21.7671 415.834 22.2734C415.56 22.4593 415.56 22.8182 415.834 23.0104C416.469 23.4462 417.226 23.4142 417.971 23.4462C418.826 23.4847 419.681 23.4783 420.536 23.4911C422.19 23.5167 423.851 23.5296 425.506 23.536C428.87 23.5488 432.24 23.5616 435.604 23.5744C442.339 23.6001 449.067 23.6193 455.801 23.6321C457.725 23.6321 459.648 23.6385 461.571 23.6449C462.481 23.6449 463.391 23.6449 464.294 23.6449C465.32 23.6449 466.205 23.5232 467.201 23.2989C467.86 23.1514 467.86 22.1196 467.201 21.9722H467.207Z" fill="#813D19"/>
<path d="M447.376 21.5172C447.217 20.7994 446.771 20.2162 446.112 19.9534C445.568 19.7355 444.97 19.7612 444.396 19.7612C441.783 19.7804 439.17 19.8958 436.569 20.1393C435.891 20.2034 435.293 20.8315 435.354 21.5236C435.232 21.6902 435.171 21.921 435.226 22.1965C435.354 22.7926 435.482 23.395 435.616 23.991C435.726 24.4845 435.836 25.0164 436.111 25.4458C437.411 27.4902 443.157 25.5932 445.166 25.997C445.599 26.0867 446.045 26.1956 446.472 26.0803C447.858 25.7086 447.602 22.5426 447.376 21.5108V21.5172Z" fill="#52381E"/>
<path d="M461.01 16.4989C460.961 16.4155 460.9 16.3322 460.839 16.2553C460.826 16.2361 460.808 16.2169 460.79 16.1976C460.784 16.1912 460.771 16.1784 460.765 16.172C460.704 16.1079 460.637 16.063 460.558 16.0246C460.491 15.9925 460.423 15.9669 460.35 15.9541C460.259 15.9349 460.167 15.922 460.075 15.9156C459.984 15.9092 459.898 15.922 459.813 15.9605C459.709 16.0054 459.642 16.0823 459.581 16.172C459.581 16.172 459.581 16.172 459.575 16.1784C459.52 16.2361 459.489 16.313 459.477 16.3899C459.471 16.4412 459.477 16.4924 459.489 16.5501C459.514 16.7296 459.611 16.8834 459.764 16.9795C459.764 16.9795 459.77 16.9859 459.776 16.9923C459.831 17.0436 459.88 17.0949 459.935 17.1397C459.996 17.1846 460.057 17.223 460.118 17.2679C460.179 17.3256 460.228 17.364 460.301 17.3961C460.405 17.4409 460.497 17.4538 460.607 17.4345C460.643 17.4345 460.674 17.4217 460.71 17.4153C460.716 17.4153 460.723 17.4153 460.729 17.4153C460.796 17.4025 460.851 17.3512 460.9 17.3063C460.942 17.2679 460.985 17.2038 461.01 17.1654C461.064 17.0756 461.101 16.9539 461.095 16.8449C461.095 16.7232 461.058 16.6078 460.997 16.5052L461.01 16.4989Z" fill="#FFF494"/>
<path d="M461.907 18.3125C461.803 18.2164 461.669 18.1395 461.529 18.1459C461.388 18.1523 461.254 18.2036 461.15 18.3125C461.107 18.3382 461.071 18.3702 461.022 18.3894C461.052 18.3766 461.077 18.3638 461.107 18.351C461.028 18.383 460.955 18.4215 460.894 18.4856C460.881 18.4984 460.869 18.5112 460.857 18.524C460.851 18.5304 460.845 18.5368 460.833 18.5432C460.82 18.5496 460.808 18.5625 460.796 18.5689C460.765 18.5881 460.747 18.6009 460.723 18.6202C460.704 18.6394 460.686 18.6586 460.674 18.6778C460.674 18.6778 460.674 18.6778 460.668 18.6778C460.601 18.6778 460.527 18.6906 460.497 18.7611C460.454 18.8381 460.472 18.9213 460.527 18.9854C460.539 19.0047 460.552 19.0175 460.564 19.0367L460.576 19.0495C460.588 19.0752 460.594 19.1008 460.607 19.1265C460.686 19.2867 460.845 19.3636 461.003 19.4084C461.077 19.4277 461.162 19.4405 461.242 19.4469C461.37 19.4597 461.504 19.4148 461.614 19.3443C461.724 19.2802 461.834 19.1905 461.913 19.088C462.005 18.9726 462.072 18.8445 462.072 18.6907C462.072 18.5497 462.011 18.3894 461.913 18.2933L461.907 18.3125Z" fill="#FFF494"/>
<path d="M463.33 17.9069C463.305 17.8369 463.269 17.7732 463.22 17.7222C463.087 17.5821 462.88 17.5184 462.692 17.5757C462.692 17.5757 462.692 17.5757 462.686 17.5757C462.644 17.5948 462.601 17.6139 462.559 17.633C462.498 17.6712 462.443 17.7158 462.407 17.7795C462.371 17.8178 462.352 17.856 462.34 17.9069C462.304 17.977 462.292 18.0471 462.292 18.1235C462.298 18.1745 462.304 18.2255 462.31 18.2764C462.328 18.321 462.346 18.3656 462.365 18.4102C462.401 18.4739 462.443 18.5312 462.504 18.5695C462.559 18.6204 462.619 18.6523 462.686 18.6714C462.686 18.6714 462.686 18.6714 462.692 18.6714C462.789 18.6969 462.886 18.6969 462.978 18.6714C463.069 18.6459 463.147 18.5949 463.214 18.5249C463.245 18.4867 463.269 18.4484 463.299 18.4102C463.348 18.321 463.372 18.2255 463.372 18.1235C463.372 18.0471 463.36 17.9706 463.323 17.9069H463.33Z" fill="#FFF494"/>
<path d="M416.06 56.3809L466.474 56.3809C470.521 56.3809 473.801 52.9377 473.801 48.6903V42.5377C473.801 38.2903 470.521 34.8471 466.474 34.8471L416.06 34.8471C412.014 34.8471 408.734 38.2903 408.734 42.5377V48.6903C408.734 52.9377 412.014 56.3809 416.06 56.3809Z" fill="#813D19"/>
<path d="M409.02 46.0752C409.979 46.2739 410.95 46.5431 411.927 46.5879C412.959 46.6328 414.003 46.5879 415.034 46.5879C417.11 46.5879 419.18 46.5879 421.256 46.5879C425.457 46.5879 429.651 46.5879 433.852 46.5879C442.198 46.5879 450.545 46.5816 458.891 46.5752C463.556 46.5752 468.22 46.588 472.885 46.5239C473.416 46.5303 473.679 46.1009 473.673 45.6651C473.673 45.2293 473.416 44.7999 472.885 44.8063C456.198 44.5756 439.5 44.7422 422.807 44.7358C420.523 44.7358 418.246 44.7358 415.963 44.7358C414.821 44.7358 413.679 44.7358 412.543 44.7358C411.335 44.7358 410.193 45.005 409.014 45.2485C408.617 45.3318 408.617 46.0048 409.014 46.0881L409.02 46.0752Z" fill="#52381E"/>
<path d="M459.727 44.6978C459.825 45.0567 459.898 45.4156 459.953 45.7873C459.966 45.9091 459.978 46.0372 459.99 46.159C460.002 46.4538 460.008 46.7422 460.02 47.037C460.033 47.3703 460.149 47.6907 460.375 47.9279C460.582 48.1458 460.924 48.3124 461.223 48.2996C461.907 48.2675 462.383 47.742 462.426 47.037C462.463 46.3897 462.414 45.7681 462.322 45.1272C462.304 44.999 462.273 44.8772 462.249 44.7555C462.243 44.6017 462.231 44.4414 462.194 44.3004C462.164 44.1851 462.121 44.0761 462.084 43.9672H462.078C462.048 43.8582 462.005 43.7493 461.944 43.6532C461.87 43.5186 461.779 43.3968 461.663 43.2943C461.333 42.9033 460.747 42.8648 460.314 43.102C459.776 43.3968 459.563 44.1146 459.727 44.6978Z" fill="#FFAF40"/>
<path d="M418.014 44.6978C418.112 45.0567 418.185 45.4156 418.24 45.7873C418.252 45.9091 418.264 46.0372 418.277 46.159C418.289 46.4538 418.295 46.7422 418.307 47.037C418.319 47.3703 418.435 47.6907 418.661 47.9279C418.869 48.1458 419.211 48.3124 419.51 48.2996C420.194 48.2675 420.67 47.742 420.713 47.037C420.749 46.3897 420.7 45.7681 420.609 45.1272C420.591 44.999 420.56 44.8772 420.536 44.7555C420.53 44.6017 420.517 44.4414 420.481 44.3004C420.45 44.1851 420.407 44.0761 420.371 43.9672H420.365C420.334 43.8582 420.291 43.7493 420.23 43.6532C420.157 43.5186 420.066 43.3968 419.95 43.2943C419.62 42.9033 419.034 42.8648 418.6 43.102C418.063 43.3968 417.849 44.1146 418.014 44.6978Z" fill="#FFAF40"/>
<path d="M447.986 45.601C447.968 45.1845 447.822 44.7999 447.59 44.4923C447.284 44.0886 446.832 43.8258 446.301 43.8258C445.556 43.8258 444.811 43.8258 444.067 43.8322C443.999 43.8258 443.932 43.813 443.865 43.813C441.917 43.8258 439.97 43.845 438.022 43.8578C437.979 43.8578 437.937 43.8706 437.894 43.8706C437.692 43.8706 437.485 43.8706 437.283 43.8706C436.783 43.8706 436.3 44.1398 435.989 44.55C435.763 44.8448 435.623 45.2037 435.641 45.5946C435.659 45.9984 435.8 46.3765 436.026 46.6713C436.319 47.0622 436.758 47.3186 437.283 47.3186C437.485 47.3186 437.686 47.3186 437.888 47.3186C437.93 47.3186 437.973 47.3314 438.022 47.3314C439.97 47.3443 441.917 47.3635 443.865 47.3763C443.932 47.3763 443.993 47.3635 444.06 47.3571C444.811 47.3571 445.556 47.3699 446.307 47.3635C446.82 47.3635 447.315 47.0879 447.638 46.6649C447.87 46.3637 448.017 45.992 447.999 45.5882L447.986 45.601Z" fill="#FFAF40"/>
<path d="M468.019 37.302C467.976 37.1289 467.897 36.9688 467.775 36.847C467.695 36.7701 467.604 36.6932 467.512 36.6355C467.488 36.6227 467.463 36.6034 467.439 36.5906C467.365 36.5522 467.28 36.5137 467.201 36.4817C466.944 36.392 466.743 36.4817 466.517 36.5842C466.474 36.6034 466.437 36.6291 466.401 36.6611C466.303 36.7188 466.23 36.8021 466.175 36.8982C466.12 37.0008 466.089 37.1161 466.089 37.2315C466.089 37.4558 466.205 37.7058 466.401 37.8083C466.413 37.8147 466.425 37.8275 466.437 37.8339C466.462 37.8532 466.48 37.8788 466.511 37.898C466.584 37.9685 466.676 38.0198 466.773 38.0454C466.773 38.0454 466.785 38.0454 466.792 38.0454C466.81 38.0583 466.834 38.0647 466.853 38.0775C466.944 38.1416 467.048 38.1672 467.152 38.212C467.097 38.1864 467.042 38.1608 466.981 38.1351C467.06 38.1672 467.133 38.2121 467.213 38.2377C467.231 38.2377 467.243 38.2505 467.262 38.2505C467.28 38.2569 467.298 38.2697 467.317 38.2761C467.408 38.3018 467.512 38.3018 467.604 38.2761C467.72 38.2441 467.811 38.1736 467.884 38.0711C467.945 37.9813 467.994 37.8788 468.019 37.7698C468.037 37.6993 468.049 37.584 468.049 37.5391C468.049 37.4558 468.031 37.3661 468.013 37.2828L468.019 37.302Z" fill="#936038"/>
<path d="M469.35 39.0704L469.283 38.9102C469.24 38.8333 469.185 38.7692 469.118 38.718C469.075 38.6731 469.032 38.6475 468.977 38.6282C468.898 38.5834 468.819 38.5641 468.727 38.5705C468.672 38.5769 468.611 38.5834 468.556 38.5962C468.489 38.6154 468.428 38.6475 468.373 38.6859C468.355 38.6987 468.33 38.7116 468.306 38.7244C468.226 38.7628 468.153 38.8013 468.098 38.8718C468.086 38.8782 468.074 38.891 468.062 38.8974C468.068 38.8974 468.08 38.891 468.086 38.8846C468.074 38.8974 468.062 38.9102 468.049 38.9166C468.007 38.9423 467.964 38.9551 467.927 38.9935C467.86 39.064 467.817 39.1474 467.787 39.2435C467.762 39.346 467.762 39.4422 467.787 39.5447C467.811 39.6408 467.86 39.7242 467.927 39.7946C467.988 39.8459 468.049 39.9036 468.123 39.942C468.202 39.9805 468.281 40.0254 468.367 40.0382C468.397 40.0382 468.434 40.051 468.464 40.051C468.44 40.051 468.538 40.0638 468.562 40.0638C468.593 40.0638 468.623 40.0638 468.654 40.051C468.715 40.051 468.77 40.0318 468.825 40.0061C468.843 39.9997 468.886 39.9805 468.916 39.9677C468.983 39.9292 469.038 39.8715 469.099 39.8267C469.118 39.8139 469.13 39.801 469.142 39.7818C469.191 39.7241 469.24 39.6601 469.283 39.596C469.331 39.5191 469.356 39.4357 469.362 39.346C469.38 39.2563 469.38 39.1666 469.35 39.0769V39.0704Z" fill="#936038"/>
<path d="M470.685 37.7864C470.667 37.7291 470.643 37.6781 470.6 37.6335C470.57 37.5826 470.533 37.538 470.479 37.5061C470.436 37.4615 470.388 37.436 470.333 37.4169C470.254 37.3723 470.169 37.3532 470.078 37.3596C470.018 37.366 469.963 37.3787 469.902 37.3851C469.817 37.4042 469.738 37.4488 469.678 37.5125C469.66 37.5252 469.647 37.5443 469.629 37.5635C469.599 37.5826 469.569 37.5953 469.544 37.6208L469.465 37.729C469.417 37.8119 469.393 37.9075 469.393 38.003C469.393 38.0157 469.393 38.0285 469.393 38.0412C469.393 38.0731 469.399 38.175 469.423 38.2323C469.471 38.3661 469.496 38.4362 469.593 38.5381C469.635 38.5827 469.69 38.6273 469.745 38.6591C469.799 38.6846 469.848 38.7037 469.902 38.7292C469.993 38.7611 470.078 38.7611 470.169 38.742C470.23 38.742 470.285 38.7228 470.339 38.6974C470.424 38.6719 470.491 38.6209 470.552 38.5509C470.588 38.5063 470.618 38.4553 470.655 38.4107C470.679 38.3534 470.697 38.3024 470.722 38.245C470.728 38.1813 470.74 38.124 470.746 38.0603C470.746 37.9648 470.728 37.8756 470.691 37.7928L470.685 37.7864Z" fill="#936038"/>
<path d="M470.889 53.5547H412.782C408.735 53.5547 405.455 56.9979 405.455 61.2453V69.9421C405.455 74.1895 408.735 77.6327 412.782 77.6327H470.889C474.935 77.6327 478.215 74.1895 478.215 69.9421V61.2453C478.215 56.9979 474.935 53.5547 470.889 53.5547Z" fill="#FF8395"/>
<path d="M449.531 67.1094C449.372 67.1094 449.214 67.1094 449.055 67.1094C449.031 67.1094 449 67.103 448.976 67.103C448.31 67.103 447.645 67.1094 446.973 67.1159C446.515 67.1159 446.057 67.1159 445.599 67.1223C445.434 67.1223 445.27 67.1223 445.105 67.1223C442.846 67.1223 440.58 67.1351 438.321 67.1415C438.016 67.1415 437.723 67.2312 437.461 67.3722C437.18 67.3786 436.899 67.3786 436.618 67.3914C436.087 67.3722 435.604 67.667 435.293 68.0964C435.073 68.3912 434.939 68.7501 434.939 69.1539C434.939 69.5897 435.092 69.9678 435.336 70.269C435.647 70.6728 436.111 70.9419 436.618 70.9227C436.899 70.9355 437.174 70.9355 437.454 70.9419C437.717 71.0829 438.004 71.1727 438.315 71.1727C440.58 71.1727 442.84 71.1855 445.105 71.1919C445.263 71.1919 445.428 71.1919 445.587 71.1919C446.051 71.1919 446.509 71.1919 446.973 71.1983C447.639 71.1983 448.304 71.2047 448.97 71.2111C448.994 71.2111 449.018 71.2047 449.049 71.2047C449.208 71.2047 449.366 71.2047 449.531 71.2047C450.551 71.2047 451.528 70.2562 451.485 69.1539C451.436 68.0387 450.63 67.1094 449.531 67.103V67.1094Z" fill="#343251"/>
<path d="M477.892 60.8994C476.823 60.6815 475.73 60.3739 474.637 60.3226C473.484 60.2713 472.317 60.3226 471.157 60.3226C468.837 60.3226 466.517 60.3226 464.203 60.3226C459.508 60.3226 454.813 60.3226 450.117 60.3226C440.782 60.3226 431.453 60.329 422.117 60.3354C416.897 60.3354 411.683 60.3226 406.463 60.3931C405.87 60.3867 405.577 60.8674 405.583 61.3544C405.583 61.8415 405.87 62.3222 406.463 62.3158C425.121 62.5785 443.798 62.3863 462.463 62.3927C465.015 62.3927 467.567 62.3927 470.113 62.3927C471.389 62.3927 472.665 62.3927 473.941 62.3927C475.291 62.3927 476.573 62.0914 477.892 61.8159C478.331 61.7261 478.331 60.9699 477.892 60.8802V60.8994Z" fill="#FF6074"/>
<path d="M421.189 62.4373C421.079 62.0399 420.994 61.6297 420.933 61.2196C420.92 61.0786 420.902 60.944 420.896 60.803C420.884 60.4761 420.872 60.1493 420.859 59.8225C420.847 59.4507 420.719 59.0918 420.469 58.8227C420.237 58.5791 419.852 58.3933 419.516 58.4125C418.753 58.451 418.216 59.0342 418.173 59.8225C418.13 60.5402 418.185 61.2388 418.289 61.9566C418.307 62.0976 418.344 62.2322 418.368 62.3732C418.381 62.5462 418.387 62.7193 418.429 62.8795C418.46 63.0077 418.509 63.1294 418.551 63.2576C418.551 63.2576 418.552 63.2576 418.558 63.2576C418.594 63.3858 418.643 63.5011 418.71 63.6101C418.79 63.7639 418.893 63.8985 419.022 64.0138C419.388 64.4496 420.047 64.4945 420.53 64.2317C421.128 63.9049 421.372 63.0974 421.189 62.4501V62.4373Z" fill="#343251"/>
<path d="M467.83 62.4373C467.72 62.0399 467.634 61.6297 467.573 61.2196C467.561 61.0786 467.543 60.944 467.537 60.803C467.524 60.4761 467.512 60.1493 467.5 59.8225C467.488 59.4507 467.36 59.0918 467.109 58.8227C466.877 58.5791 466.493 58.3933 466.157 58.4125C465.394 58.451 464.856 59.0342 464.814 59.8225C464.771 60.5402 464.826 61.2388 464.93 61.9566C464.948 62.0976 464.985 62.2322 465.009 62.3732C465.021 62.5462 465.027 62.7193 465.07 62.8795C465.1 63.0077 465.149 63.1294 465.192 63.2576C465.192 63.2576 465.192 63.2576 465.198 63.2576C465.235 63.3858 465.284 63.5011 465.351 63.6101C465.43 63.7639 465.534 63.8985 465.662 64.0138C466.029 64.4496 466.688 64.4945 467.17 64.2317C467.769 63.9049 468.013 63.0974 467.83 62.4501V62.4373Z" fill="#343251"/>
<path d="M472.403 55.3237C472.378 55.234 472.329 55.1571 472.262 55.093C472.232 55.0546 472.177 55.0161 472.14 54.9905C472.097 54.9585 472.055 54.92 472.012 54.8879C471.969 54.8559 471.927 54.8303 471.878 54.8046C471.804 54.7662 471.737 54.7277 471.658 54.7085C471.499 54.6637 471.395 54.6893 471.237 54.7085C471.194 54.7149 471.145 54.7277 471.102 54.7406C471.053 54.7598 471.005 54.7854 470.956 54.8046L470.834 54.9072L470.736 55.0353C470.693 55.1058 470.669 55.1892 470.663 55.2725C470.65 55.3302 470.65 55.3878 470.663 55.4455C470.663 55.5032 470.675 55.5545 470.705 55.6057C470.718 55.657 470.748 55.7083 470.785 55.7468C470.827 55.8108 470.882 55.8621 470.944 55.9006C470.919 55.8813 470.895 55.8621 470.87 55.8429C470.931 55.8941 470.98 55.9454 471.041 55.9967C471.066 56.0223 471.096 56.048 471.127 56.0608C471.182 56.0864 471.237 56.112 471.291 56.1377C471.298 56.1377 471.31 56.1377 471.316 56.1441C471.322 56.1441 471.334 56.1505 471.34 56.1569C471.359 56.1633 471.371 56.1761 471.389 56.189C471.45 56.2274 471.517 56.253 471.585 56.2851C471.646 56.2915 471.707 56.3043 471.762 56.3107C471.853 56.3107 471.945 56.2915 472.024 56.2466C472.079 56.2274 472.134 56.2017 472.171 56.1569C472.244 56.1056 472.305 56.0415 472.348 55.9582C472.372 55.9005 472.391 55.8429 472.415 55.7916C472.421 55.7275 472.433 55.6634 472.439 55.6057C472.439 55.5096 472.421 55.4135 472.378 55.3302L472.403 55.3237Z" fill="#DB92A3"/>
<path d="M475.364 56.4321C475.297 56.3103 475.205 56.2142 475.089 56.1437C474.998 56.086 474.906 56.054 474.802 56.0476C474.698 56.0219 474.595 56.0283 474.497 56.0604C474.399 56.086 474.308 56.1309 474.235 56.2078C474.149 56.2655 474.082 56.3424 474.033 56.4321C474.009 56.4962 473.984 56.5603 473.954 56.6244C473.923 56.7525 473.923 56.8807 473.954 57.0089C473.954 56.9961 473.948 56.9832 473.941 56.9768C473.893 56.8999 473.844 56.8294 473.783 56.7589C473.777 56.7461 473.764 56.7397 473.758 56.7269L473.746 56.7141H473.74C473.673 56.6308 473.593 56.5795 473.502 56.5475C473.398 56.5026 473.313 56.4705 473.19 56.4833C473.117 56.4898 473.044 56.5026 472.971 56.5154C472.958 56.5154 472.946 56.5154 472.934 56.5218H472.922C472.83 56.541 472.757 56.5859 472.69 56.65C472.665 56.6692 472.641 56.6885 472.617 56.7077C472.531 56.7974 472.476 56.8999 472.446 57.0217C472.415 57.1499 472.415 57.2716 472.446 57.3998C472.464 57.4447 472.494 57.5344 472.519 57.5729C472.58 57.701 472.586 57.6754 472.635 57.7267C472.641 57.7331 472.653 57.7459 472.659 57.7523C472.72 57.8228 472.745 57.8677 472.855 57.9253C472.916 57.951 472.971 57.9766 473.032 58.0022C473.032 58.0022 473.032 58.0022 473.038 58.0022C473.038 58.0022 473.05 58.0022 473.056 58.0022C473.068 58.0022 473.081 58.0022 473.093 58.0087C473.117 58.0151 473.142 58.0215 473.166 58.0343C473.227 58.0407 473.288 58.0535 473.349 58.0599C473.41 58.0535 473.471 58.0407 473.532 58.0343C473.587 58.0087 473.642 57.983 473.697 57.9638C473.777 57.9189 473.844 57.8549 473.893 57.7779C473.935 57.7331 473.966 57.6818 473.984 57.6177C474.015 57.56 474.033 57.5024 474.033 57.4319C474.051 57.3678 474.051 57.3037 474.033 57.2396C474.033 57.2204 474.027 57.1947 474.021 57.1755C474.033 57.2011 474.039 57.2204 474.051 57.246C474.118 57.3678 474.21 57.4639 474.326 57.5344C474.448 57.6113 474.576 57.6498 474.717 57.6498C474.857 57.6498 474.985 57.6113 475.108 57.5408C475.114 57.5408 475.126 57.528 475.132 57.528C475.352 57.3998 475.486 57.1371 475.486 56.8743V56.8422C475.486 56.6948 475.45 56.5603 475.382 56.4321H475.364Z" fill="#DB92A3"/>
<path d="M549.345 174.009L502.65 172.874L420.42 170.189H367.564L377.791 138.414C377.791 138.414 407.488 131.185 409.259 132.223C411.029 133.255 463.94 136.767 470.431 137.594C476.921 138.42 530.815 137.184 530.815 137.184L544.974 144.823L554.022 168.151L549.345 174.015V174.009Z" fill="#6F2533"/>
<path d="M410.376 74.55C390.576 75.6907 373.089 96.4938 372.161 113.529C372.161 113.529 365.408 113.811 358.656 129.711C351.903 145.611 352.599 168.042 353.997 170.599C355.395 173.156 369.597 173.156 369.597 173.156C369.597 173.156 376.234 145.586 395.326 144.733C414.418 143.881 419.028 160.813 420.426 170.183C420.426 170.183 491.012 173.72 502.656 172.868C502.656 172.868 504.091 145.586 522.951 144.733C541.811 143.881 549.583 168.613 549.351 174.009C549.351 174.009 560.06 173.438 563.785 173.438C563.785 173.438 562.961 136.241 555.28 123.744C547.599 111.253 508.841 109.549 508.841 109.549C508.841 109.549 497.851 82.6636 487.221 79.0874C475.614 75.1909 449.733 72.2684 410.388 74.5436L410.376 74.55Z" fill="#FF7F0A"/>
<path d="M493.565 96.3336C491.342 91.9628 488.338 88.0085 483.838 86.0282C481.714 85.0925 479.418 84.5413 477.073 84.1825C473.697 83.3557 470.125 83.3557 466.639 83.3365C460.552 82.9648 454.458 82.9071 448.371 83.125C447.944 83.1378 447.565 83.2403 447.235 83.3941C446.906 83.4326 446.57 83.4583 446.24 83.4967C444.702 83.7018 443.584 84.6311 443.493 86.3294C443.114 93.2766 442.736 100.217 442.345 107.165C442.211 109.593 441.808 112.221 444.152 113.669C446.491 115.118 450.276 114.663 452.908 114.81C466.889 115.618 480.896 115.816 494.896 115.458C496.55 115.413 497.631 114.125 497.771 112.49C498.26 106.754 496.098 101.313 493.559 96.3272L493.565 96.3336Z" fill="#FF7100"/>
<path d="M543.93 131.71C532.628 130.179 521.412 130.268 510.031 130.281C498.925 130.288 487.825 130.294 476.719 130.307C454.318 130.32 431.91 130.268 409.509 130.422C396.7 130.512 383.713 129.986 370.934 130.922C368.589 131.095 368.589 134.575 370.934 134.748C382.168 135.568 393.567 135.133 404.832 135.21C415.938 135.286 427.038 135.325 438.144 135.331C460.546 135.344 482.953 135.363 505.354 135.376C518.274 135.383 531.096 135.69 543.93 133.947C545.297 133.761 545.297 131.896 543.93 131.71Z" fill="#FFBD55"/>
<path d="M544.467 140.112C543.923 139.856 543.362 139.516 542.794 139.337C542.14 139.132 541.402 139.215 540.724 139.215C539.216 139.215 537.702 139.209 536.194 139.202C533.403 139.196 530.613 139.215 527.823 139.234C522.126 139.285 516.43 139.337 510.739 139.337C499.346 139.343 487.96 139.35 476.567 139.356C453.903 139.369 431.233 139.388 408.569 139.401C397.841 139.407 387.114 139.42 376.386 139.439C374.329 139.401 372.265 139.452 370.213 139.446C369.92 139.446 369.688 139.555 369.524 139.715C368.492 139.734 368.492 141.381 369.524 141.4C369.688 141.561 369.92 141.67 370.213 141.67C372.259 141.67 374.31 141.714 376.362 141.676C397.096 141.714 417.825 141.721 438.559 141.734C461.223 141.746 483.893 141.766 506.557 141.779C512.95 141.779 519.342 141.811 525.735 141.868C528.873 141.894 532.011 141.932 535.15 141.926C536.78 141.926 538.404 141.919 540.034 141.913C540.822 141.913 541.689 142.009 542.47 141.862C543.166 141.727 543.832 141.323 544.473 141.022C544.802 140.868 544.802 140.26 544.473 140.106L544.467 140.112Z" fill="#FFBD55"/>
<path d="M411.78 155.263C405.034 148.053 393.555 145.688 383.994 154.013C376.618 160.435 371.142 172.035 375.867 180.95C379.366 187.551 387.969 191.281 395.857 191.121C409.399 190.839 417.941 180.687 417.513 168.914C417.324 163.646 415.138 158.852 411.78 155.263Z" fill="#343251"/>
<path d="M404.637 165.267C403.66 163.832 402.335 162.621 400.802 161.851C396.883 159.294 390.856 159.884 387.651 164.005C386.808 165.088 386.228 166.376 385.905 167.735C382.913 180.405 401.792 185.885 406.084 173.105C406.926 170.593 406.249 167.632 404.631 165.267H404.637Z" fill="white"/>
<path d="M398.8 169.593C398.659 169.138 398.403 168.734 398.03 168.401C397.829 168.26 397.627 168.119 397.426 167.978C396.962 167.735 396.455 167.613 395.918 167.606C395.509 167.594 395.124 167.67 394.764 167.837C394.392 167.946 394.074 168.132 393.799 168.395C393.506 168.638 393.299 168.933 393.183 169.266C392.993 169.587 392.908 169.933 392.926 170.311L393.03 171.029C393.17 171.49 393.427 171.887 393.799 172.221C394.001 172.362 394.202 172.503 394.404 172.644C394.868 172.887 395.375 173.009 395.912 173.015C396.321 173.028 396.706 172.951 397.066 172.785C397.438 172.676 397.756 172.49 398.03 172.227C398.324 171.984 398.531 171.695 398.647 171.356C398.836 171.035 398.922 170.689 398.904 170.311L398.794 169.593H398.8Z" fill="#343251"/>
<path d="M533.776 151.558C524.862 146.918 513.591 148.271 508.261 159.012C504.145 167.305 503.791 179.834 511.558 186.698C517.309 191.78 526.528 192.601 533.568 189.999C545.651 185.532 549.339 173.4 544.32 162.53C542.073 157.666 538.215 153.866 533.776 151.558Z" fill="#343251"/>
<path d="M531.279 163.12C529.832 162.082 528.165 161.358 526.48 161.121C521.943 159.948 516.754 162.371 515.49 167.209C515.16 168.485 515.142 169.863 515.386 171.234C517.688 184.007 536.847 183.263 535.675 169.991C535.443 167.382 533.666 164.825 531.279 163.12Z" fill="white"/>
<path d="M527.731 168.978C527.42 168.593 527.035 168.298 526.565 168.1C526.327 168.029 526.089 167.959 525.851 167.895C525.332 167.811 524.831 167.85 524.343 168.016C523.964 168.132 523.653 168.324 523.396 168.593C523.103 168.811 522.89 169.087 522.749 169.413C522.584 169.734 522.511 170.067 522.535 170.42C522.493 170.779 522.554 171.131 522.713 171.471L523.091 172.112C523.402 172.496 523.787 172.791 524.257 172.99C524.495 173.06 524.733 173.131 524.972 173.195C525.491 173.278 525.991 173.24 526.48 173.073C526.858 172.958 527.17 172.765 527.426 172.496C527.719 172.278 527.933 172.003 528.073 171.676C528.238 171.355 528.311 171.022 528.287 170.67C528.33 170.311 528.269 169.958 528.11 169.619L527.731 168.978Z" fill="#343251"/>
<path d="M492.197 96.6029C490.103 92.6294 487.276 89.0277 483.039 87.2268C481.036 86.3744 478.875 85.8745 476.67 85.5477C473.489 84.7914 470.125 84.7914 466.847 84.7786C461.113 84.4389 455.374 84.3877 449.641 84.5863C449.238 84.5992 448.884 84.6889 448.573 84.8299C448.261 84.8619 447.95 84.8875 447.638 84.926C446.185 85.1119 445.141 85.9578 445.05 87.5024C444.695 93.8215 444.335 100.141 443.969 106.453C443.841 108.658 443.462 111.055 445.672 112.369C447.876 113.682 451.442 113.272 453.921 113.407C467.091 114.137 480.285 114.323 493.473 113.996C495.03 113.958 496.05 112.785 496.178 111.298C496.636 106.082 494.596 101.134 492.209 96.5901L492.197 96.6029Z" fill="#9CF5FF"/>
<path d="M436.777 90.8094C436.514 88.2715 436.459 85.0927 433.821 83.6251C432.655 82.9778 431.117 82.6958 429.499 82.5869C428.101 82.369 426.599 82.4715 425.164 82.5676C424.541 82.5869 423.955 82.6061 423.424 82.6125C422.264 82.6253 421.11 82.6638 419.974 82.7727C414.381 82.8945 408.502 82.9266 403.306 84.5031C397.841 86.163 394.068 89.9442 391.852 94.8662C390.802 97.1926 390.081 99.6152 389.526 102.089C389 104.409 387.84 107.607 389.464 109.728C390.979 111.702 393.94 111.58 396.254 111.862C400.18 112.33 404.118 112.728 408.062 113.042C415.108 113.606 422.844 114.625 429.896 113.894C436.245 113.234 436.716 107.274 437.015 102.422C437.253 98.5577 437.173 94.6675 436.777 90.8094Z" fill="#FF7100"/>
<path d="M435.159 91.3925C434.914 89.0533 434.865 86.1181 432.399 84.7722C431.312 84.1762 429.871 83.9198 428.363 83.8173C427.056 83.6122 425.658 83.7083 424.321 83.798C423.741 83.8173 423.192 83.8301 422.697 83.8365C421.616 83.8493 420.536 83.8878 419.479 83.9839C414.265 84.0993 408.782 84.1249 403.935 85.5797C398.843 87.1114 395.32 90.5914 393.256 95.1289C392.279 97.2758 391.607 99.5061 391.088 101.788C390.6 103.922 389.513 106.876 391.033 108.831C392.444 110.651 395.204 110.542 397.365 110.792C401.028 111.228 404.698 111.587 408.379 111.875C414.949 112.394 422.16 113.33 428.742 112.657C434.664 112.048 435.104 106.556 435.378 102.082C435.598 98.5192 435.525 94.9366 435.159 91.3797V91.3925Z" fill="#9CF5FF"/>
<path d="M563.26 164.658C561.526 164.6 559.792 164.581 558.058 164.575C555.188 164.376 552.227 164.613 549.357 164.62C546.079 164.632 544.436 167.299 544.442 169.965C544.442 172.631 546.073 175.297 549.357 175.31C552.227 175.322 555.194 175.553 558.058 175.354C559.792 175.354 561.526 175.329 563.26 175.271C566.581 175.38 568.205 172.669 568.138 169.958C568.205 167.247 566.587 164.543 563.26 164.652V164.658Z" fill="#FF7100"/>
<path d="M368.852 163.575C367.118 163.517 365.384 163.498 363.65 163.492C360.78 163.293 357.819 163.53 354.95 163.537C351.671 163.549 350.028 166.215 350.035 168.882C350.035 171.548 351.665 174.214 354.95 174.227C357.819 174.239 360.786 174.47 363.65 174.271C365.384 174.271 367.118 174.246 368.852 174.188C372.173 174.297 373.797 171.586 373.73 168.875C373.797 166.164 372.179 163.46 368.852 163.569V163.575Z" fill="#FF7100"/>
<path d="M559.963 131.454C559.535 129.602 558.919 127.538 557.716 126.109C557.582 125.846 557.447 125.609 557.325 125.41C555.713 122.84 552.367 122.341 550.517 124.955C548.948 127.173 548.863 130.473 549.284 133.095C549.693 135.645 550.884 138.132 552.599 139.997C554.663 142.246 558.162 143.394 560.079 140.202C561.489 137.85 560.537 133.941 559.963 131.454Z" fill="white"/>
<path d="M562.515 147.361C561.868 146.81 561.214 146.329 560.378 146.156C559.542 145.983 558.693 145.97 557.869 146.239C557.551 146.342 557.252 146.508 556.983 146.714C556.025 147.207 555.304 148.156 555.353 149.373C555.384 150.155 555.628 150.963 556.196 151.507C556.721 152.014 557.282 152.238 557.954 152.347C558.204 152.424 558.467 152.456 558.736 152.443C559.303 152.501 559.871 152.565 560.439 152.623C560.903 152.674 561.526 152.443 561.923 152.2C562.472 151.86 562.881 151.334 563.125 150.725C563.541 149.687 563.425 148.123 562.521 147.361H562.515Z" fill="#FFAF40"/>
<path d="M358.076 151.225C357.392 150.719 356.72 150.277 355.871 150.161C355.029 150.04 354.18 150.084 353.374 150.405C353.063 150.527 352.776 150.712 352.513 150.93C351.585 151.482 350.92 152.475 351.042 153.686C351.121 154.462 351.408 155.256 352.007 155.763C352.556 156.23 353.136 156.423 353.814 156.487C354.07 156.545 354.333 156.564 354.595 156.538C355.163 156.564 355.737 156.589 356.305 156.609C356.769 156.628 357.38 156.359 357.758 156.096C358.289 155.724 358.662 155.173 358.869 154.545C359.223 153.481 359.016 151.924 358.069 151.225H358.076Z" fill="#FFAF40"/>
<path d="M362.765 139.786C363.4 137.222 363.809 133.569 362.368 131.505C360.609 128.98 357.984 130.127 356.354 131.973C356.299 132.024 356.244 132.063 356.195 132.114C353.417 134.953 349.76 148.29 356.861 147.899C358.802 147.79 360.225 146.015 361.214 144.054C361.934 142.939 362.447 141.388 362.765 139.786Z" fill="white"/>
<path d="M440.214 119.207C440.055 119.015 439.732 118.932 439.506 119.008C439.341 119.066 439.182 119.137 439.097 119.31C438.859 119.784 439.121 120.143 439.164 120.623C439.225 121.335 439.066 122.085 438.993 122.79C438.816 124.475 438.7 126.167 438.565 127.853C438.297 131.224 438.126 134.608 437.93 137.985C437.534 144.734 437.18 151.488 436.764 158.237C436.661 159.923 436.557 161.614 436.447 163.3C436.398 164.069 436.349 164.832 436.3 165.601C436.239 166.504 436.019 167.664 436.709 168.382C437.198 168.895 438.016 168.895 438.504 168.382C439.145 167.709 439.078 166.633 439.133 165.755C439.231 164.069 439.329 162.384 439.426 160.692C439.811 153.943 440.202 147.195 440.483 140.44C440.635 136.71 440.843 132.973 440.879 129.237C440.898 127.346 440.953 125.449 440.922 123.559C440.898 122.155 441.148 120.361 440.22 119.207H440.214Z" fill="#FF5B0A"/>
<path d="M384.507 115.323C383.566 117.912 383.218 120.815 382.73 123.533C382.254 126.192 381.82 128.865 381.423 131.538C381.026 134.236 380.672 136.934 380.355 139.645C380.19 141.042 380.056 142.439 379.94 143.842C379.879 144.541 379.824 145.246 379.769 145.945C379.744 146.246 379.726 146.547 379.702 146.848C379.689 147.021 379.677 147.188 379.665 147.361C379.012 148.47 380.361 149.828 381.405 149.143C382.583 148.374 382.376 146.617 382.473 145.349C382.583 143.945 382.718 142.548 382.834 141.144C383.072 138.299 383.322 135.453 383.64 132.614C383.957 129.775 384.317 126.942 384.726 124.116C385.136 121.283 385.832 118.399 385.941 115.535C385.978 114.612 384.775 114.56 384.501 115.33L384.507 115.323Z" fill="#FF5B0A"/>
<path d="M504.976 126.808C504.713 125.315 504.426 123.821 504.109 122.341C503.944 121.572 503.785 120.803 503.584 120.046C503.419 119.412 503.315 118.662 502.808 118.233C502.625 118.079 502.344 118.073 502.216 118.316C501.716 119.22 502.125 120.719 502.216 121.726C502.332 123.046 502.424 124.36 502.491 125.686C502.625 128.288 502.631 130.897 502.668 133.505C502.741 138.741 502.692 143.971 502.235 149.187C502.112 150.578 501.966 151.969 501.789 153.353C501.703 154.052 501.606 154.75 501.508 155.449C501.453 155.84 501.392 156.231 501.337 156.622C501.306 156.84 501.282 157.051 501.276 157.269C501.276 157.32 501.245 157.756 501.313 157.519C500.958 158.89 502.405 160.025 503.572 159.339C504.86 158.583 504.903 156.942 505.098 155.577C505.293 154.193 505.458 152.796 505.599 151.405C505.88 148.656 506.057 145.9 506.142 143.138C506.307 137.639 505.928 132.236 504.988 126.821L504.976 126.808Z" fill="#FF5B0A"/>
<path d="M513.047 113.529C512.852 112.478 512.577 111.44 512.217 110.44C511.802 109.286 511.295 108.158 510.147 107.645C509.451 107.338 508.786 107.312 508.175 107.466C506.325 107.319 504.78 109.498 504.335 111.202C503.883 112.939 504.066 114.811 504.439 116.541C506.209 124.776 514.568 121.719 513.054 113.529H513.047Z" fill="#FF5100"/>
<path d="M456.437 122.648C455.435 122.635 454.434 122.623 453.426 122.61C452.297 122.488 451.119 122.552 450.007 122.565C446.552 122.52 446.545 128.16 450.007 128.205C451.112 128.218 452.291 128.288 453.42 128.166C454.422 128.153 455.429 128.141 456.43 128.128C459.788 128.089 459.795 122.603 456.43 122.648H456.437Z" fill="#FF5100"/>
<path d="M398.018 122.648C397.017 122.635 396.016 122.623 395.008 122.61C393.879 122.488 392.7 122.552 391.589 122.565C388.133 122.52 388.127 128.16 391.589 128.205C392.694 128.218 393.873 128.288 395.002 128.166C396.003 128.153 397.011 128.141 398.012 128.128C401.37 128.089 401.376 122.603 398.012 122.648H398.018Z" fill="#FF5100"/>
<path d="M394.208 102.568C397.817 99.8695 401.352 97.0944 404.85 94.2361C408.343 91.3842 411.817 88.513 415.273 85.6162C415.902 85.0907 416.53 84.5651 417.153 84.0332C414.223 84.1037 411.255 84.2191 408.398 84.6356C406.365 86.4045 404.331 88.1605 402.286 89.9166C398.873 92.839 395.472 95.7742 392.108 98.7672C392.017 98.8505 391.925 98.9274 391.833 99.0107C391.559 99.9272 391.308 100.856 391.095 101.792C390.844 102.901 390.429 104.227 390.301 105.528C391.681 104.554 392.987 103.484 394.208 102.574V102.568Z" fill="#EFF7FE"/>
<path d="M419.266 102.595C423.338 99.1537 427.362 95.6608 431.373 92.1424L434.902 89.0405C434.64 87.3422 434.078 85.6951 432.405 84.7786C431.318 84.1826 429.877 83.9263 428.369 83.8237C427.582 83.702 426.757 83.6955 425.939 83.7212C425.762 83.8878 425.579 84.0673 425.402 84.2275C421.329 87.951 417.281 91.6874 413.276 95.4878C409.436 99.1345 405.62 102.935 402.188 107.011C401.083 108.331 399.972 109.645 398.861 110.965C401.718 111.286 404.582 111.574 407.451 111.805C411.536 108.978 415.45 105.812 419.254 102.595H419.266Z" fill="#EFF7FE"/>
<path d="M444.341 99.7687C445.001 99.2048 445.636 98.6279 446.24 98.1088C449.079 95.6863 451.821 93.142 454.66 90.7195C457.065 88.675 459.447 86.5985 461.852 84.5541C459.178 84.4708 456.498 84.4452 453.817 84.4772C453.036 85.1822 452.26 85.9 451.497 86.6242C449.214 88.7968 446.936 90.9886 444.714 93.2381C444.592 95.4107 444.463 97.5897 444.341 99.7623V99.7687Z" fill="#EFF7FE"/>
<path d="M485.78 88.7647C484.937 88.1687 484.028 87.6432 483.032 87.2202C481.03 86.3678 478.868 85.868 476.664 85.5411C475.907 85.3617 475.138 85.2271 474.369 85.1245C474.051 85.4257 473.74 85.7334 473.422 86.0218C469.27 89.8478 465.1 93.6483 461.04 97.5833C459.819 98.7689 451.491 107.075 447.077 112.952C449.201 113.541 451.912 113.298 453.915 113.407C454.599 113.445 455.289 113.477 455.979 113.509C456.009 113.484 456.046 113.464 456.082 113.439C460.326 110.382 464.325 106.979 468.355 103.62C472.403 100.243 476.341 96.7245 480.309 93.2445C481.86 91.8795 483.893 90.4054 485.792 88.7647H485.78Z" fill="#EFF7FE"/>
<path d="M397.835 81.4588C397.041 80.4654 395.729 81.1639 394.898 81.6702C394.318 82.0227 393.781 82.465 393.25 82.8879C392.639 83.375 392.035 83.8685 391.443 84.3812C391.192 84.5991 390.942 84.817 390.716 85.0734C390.539 85.2785 390.35 85.4771 390.209 85.7143C390.063 85.9578 389.996 86.2718 389.928 86.5474C389.794 87.0986 389.928 87.6817 390.313 88.0855C390.716 88.5085 391.235 88.5982 391.778 88.4893C392.212 88.4059 392.566 88.2393 392.914 87.9637C393.274 87.6817 393.598 87.3869 393.934 87.0793C394.44 86.6115 394.953 86.1564 395.485 85.7206C395.539 85.6758 395.588 85.6374 395.643 85.5925C395.674 85.5733 395.747 85.5092 395.771 85.4899C395.851 85.4258 395.924 85.3682 396.003 85.3105C396.351 85.0349 396.706 84.7657 397.041 84.4773C397.383 84.1825 397.658 83.9198 397.927 83.5417C398.385 82.888 398.336 82.074 397.847 81.4652L397.835 81.4588Z" fill="#FFBD55"/>
<path d="M388.719 90.5724C388.671 90.4121 388.634 90.3673 388.597 90.4378L388.585 90.4186C388.5 90.316 388.439 90.2583 388.304 90.2455C388.28 90.2455 388.28 90.2455 388.298 90.2263C388.237 90.2199 388.17 90.2071 388.109 90.2007C387.969 90.1943 387.84 90.2519 387.724 90.316C387.663 90.3481 387.602 90.3865 387.541 90.4186C387.352 90.5211 387.205 90.6621 387.047 90.8095C386.937 90.912 386.827 91.0146 386.711 91.1107C386.534 91.2645 386.412 91.4696 386.271 91.6619C386.173 91.7901 386.088 91.9246 386.039 92.0977C386.021 92.1618 385.996 92.2323 385.984 92.3028C385.905 92.6873 385.935 93.1103 386.247 93.3666C386.515 93.5845 386.857 93.5974 387.175 93.5076C387.358 93.4564 387.541 93.3794 387.688 93.2577C387.785 93.1808 387.877 93.0974 387.962 93.0077C388.133 92.8283 388.286 92.6424 388.402 92.4117C388.475 92.2643 388.542 92.1105 388.61 91.9567C388.628 91.9182 388.64 91.8798 388.658 91.8477C388.695 91.758 388.732 91.6683 388.768 91.5786C388.781 91.4888 388.793 91.3991 388.805 91.303C388.811 91.2325 388.817 91.1556 388.817 91.0851C388.823 90.9056 388.817 90.7326 388.726 90.5724H388.719Z" fill="#FFBD55"/>
<path d="M496.3 88.8351C496.227 88.6365 496.159 88.4249 496.068 88.2391C495.97 88.0532 495.83 87.893 495.695 87.7328C495.402 87.3739 495.097 87.0406 494.737 86.7586C494.175 86.3228 493.497 85.8806 492.807 85.7396C492.545 85.6884 492.295 85.7332 492.099 85.9383C491.928 86.1178 491.824 86.4318 491.91 86.6817C491.977 86.874 492.032 87.0791 492.13 87.265C492.197 87.3867 492.264 87.5085 492.331 87.6367C492.472 87.9123 492.594 88.1942 492.71 88.4762C492.667 88.3673 492.624 88.2583 492.575 88.1494C492.704 88.4762 492.838 88.7903 492.991 89.1043C493.1 89.3286 493.204 89.5593 493.296 89.7965C493.241 89.6683 493.192 89.5337 493.137 89.4055C493.296 89.7964 493.345 89.9118 493.595 90.245C493.607 90.2579 493.613 90.2707 493.626 90.2835C493.638 90.2963 493.65 90.3155 493.656 90.3284C493.687 90.3668 493.711 90.3989 493.742 90.4373C493.729 90.4181 493.711 90.3989 493.699 90.3732C493.815 90.527 493.943 90.668 494.12 90.7834C494.267 90.8731 494.425 90.9629 494.596 90.9949C494.92 91.0526 495.201 91.059 495.512 90.918C495.769 90.8026 496.062 90.5911 496.184 90.3156C496.306 90.0272 496.404 89.758 496.404 89.4311C496.404 89.2325 496.367 89.021 496.294 88.8351H496.3Z" fill="#FFBD55"/>
<path d="M540.248 117.701C539.259 117.041 538.013 116.829 536.871 116.746C536.768 116.74 536.67 116.733 536.566 116.727C536.383 116.637 536.2 116.547 536.004 116.47C535.51 116.278 534.96 116.24 534.435 116.182C533.971 116.131 533.513 116.099 533.049 116.086C532.292 116.067 531.48 116.682 531.309 117.477C531.138 118.271 531.413 119.213 532.14 119.611C534.301 120.816 536.652 121.963 539.143 122.027C540.199 122.053 541.206 121.546 541.554 120.438C541.915 119.278 541.121 118.278 540.254 117.701H540.248Z" fill="#FFBD55"/>
<path d="M545.694 119.713C545.694 119.713 545.657 119.681 545.639 119.662C545.633 119.655 545.627 119.649 545.615 119.636C545.547 119.585 545.486 119.527 545.419 119.476C545.376 119.457 545.328 119.438 545.285 119.418C545.187 119.373 545.083 119.348 544.98 119.316C544.839 119.277 544.693 119.284 544.546 119.277C544.32 119.277 544.137 119.367 543.966 119.495C543.966 119.495 543.954 119.502 543.948 119.508C543.929 119.521 543.917 119.534 543.905 119.547C543.887 119.559 543.875 119.572 543.856 119.585C543.856 119.585 543.844 119.591 543.844 119.598C543.844 119.598 543.844 119.598 543.838 119.598C543.838 119.598 543.832 119.604 543.826 119.604C543.826 119.604 543.826 119.604 543.832 119.598C543.801 119.63 543.771 119.662 543.74 119.7C543.642 119.835 543.588 119.989 543.581 120.162C543.581 120.277 543.594 120.425 543.618 120.521C543.697 120.835 543.917 121.065 544.186 121.219C544.381 121.328 544.491 121.354 544.711 121.373C544.729 121.373 544.748 121.373 544.766 121.373C544.803 121.373 544.845 121.373 544.882 121.373C544.98 121.373 545.09 121.354 545.181 121.328C545.358 121.283 545.486 121.174 545.621 121.059C545.645 121.04 545.663 121.014 545.688 120.995C545.841 120.835 545.95 120.578 545.944 120.348C545.932 120.117 545.865 119.861 545.688 119.7L545.694 119.713Z" fill="#FFBD55"/>
<path d="M385.899 184.154C385.349 182.776 384.061 182.026 383.102 180.969C382.15 179.918 381.307 178.777 380.617 177.515C379.946 176.278 379.439 174.964 379.097 173.58C378.92 172.868 378.804 172.144 378.676 171.426C378.548 170.696 378.554 170.087 378.071 169.51C377.943 169.356 377.681 169.369 377.546 169.51C377.009 170.087 377.033 170.779 377.021 171.554C377.009 172.375 377.119 173.189 377.265 173.996C377.552 175.573 378.065 177.098 378.731 178.54C379.402 179.982 380.263 181.36 381.301 182.539C382.296 183.667 383.609 185.186 385.19 185.122C385.612 185.103 386.088 184.635 385.893 184.154H385.899Z" fill="#44426E"/>
<path d="M388.64 180.456C388.054 179.854 387.26 179.54 386.601 179.046C386.601 179.046 386.583 179.033 386.57 179.027C386.57 179.027 386.57 179.027 386.552 179.014C386.534 178.995 386.509 178.976 386.491 178.963C386.424 178.912 386.363 178.854 386.296 178.809C386.283 178.796 386.265 178.783 386.253 178.77C386.1 178.636 385.954 178.495 385.813 178.348C385.679 178.2 385.563 178.027 385.422 177.886C385.239 177.7 385.087 177.495 384.842 177.399C384.58 177.296 384.323 177.514 384.238 177.758C384.159 177.989 384.256 178.348 384.323 178.585C384.397 178.835 384.543 179.078 384.678 179.302C384.94 179.725 385.239 180.129 385.612 180.45C385.819 180.629 386.039 180.802 386.265 180.956C386.497 181.11 386.753 181.206 387.016 181.283C387.26 181.353 387.511 181.392 387.767 181.405C388.066 181.411 388.286 181.347 388.555 181.225C388.829 181.097 388.842 180.661 388.646 180.456H388.64Z" fill="#44426E"/>
<path d="M410.034 166.363C409.991 166.074 409.869 165.812 409.759 165.549C409.595 165.145 409.393 164.754 409.167 164.382C408.917 163.985 408.642 163.543 408.294 163.235C407.934 162.915 407.476 162.466 406.957 162.607C406.841 162.639 406.719 162.748 406.694 162.876C406.694 162.889 406.694 162.889 406.694 162.902C406.67 162.992 406.676 163.075 406.694 163.158C406.707 163.248 406.725 163.331 406.743 163.421C406.792 163.645 406.963 163.857 407.073 164.062C407.274 164.447 407.506 164.818 407.69 165.216C407.732 165.305 407.775 165.401 407.812 165.498C407.83 165.549 407.854 165.6 407.873 165.658C407.946 165.857 408.007 166.062 408.062 166.267C408.215 166.824 408.312 167.516 408.825 167.83C409.24 168.08 409.668 167.895 409.936 167.523C410.187 167.177 410.101 166.76 410.04 166.369L410.034 166.363Z" fill="#44426E"/>
<path d="M406.694 162.885C406.694 162.885 406.694 162.885 406.694 162.879C406.723 162.761 406.706 162.799 406.694 162.885Z" fill="#44426E"/>
<path d="M414.705 167.735C414.534 166.004 414.088 164.351 413.429 162.761C412.812 161.274 411.964 159.82 410.828 158.704C410.23 158.121 408.105 156.058 407.458 157.576C407.354 157.826 407.567 158.044 407.799 157.935C407.983 157.852 408.813 158.91 408.947 159.063C409.332 159.499 409.656 159.967 409.973 160.46C410.626 161.473 411.158 162.537 411.53 163.703C411.902 164.876 412.122 166.081 412.269 167.305C412.336 167.85 412.36 168.395 412.379 168.946C412.391 169.382 412.415 169.76 412.208 170.138C412.031 170.458 412.208 170.817 412.513 170.926C413.185 171.176 413.929 170.721 414.302 170.131C414.754 169.407 414.784 168.574 414.705 167.741V167.735Z" fill="#44426E"/>
<path d="M517.718 154.276C516.479 153.866 515.209 154.936 514.281 155.699C513.334 156.474 512.492 157.365 511.753 158.359C510.984 159.397 510.361 160.48 509.885 161.704C509.665 162.268 509.463 162.851 509.335 163.447C509.201 164.082 508.999 164.825 509.305 165.421C509.47 165.748 509.854 165.729 510.092 165.53C510.508 165.178 510.617 164.53 510.825 164.024C511.039 163.511 511.24 162.999 511.491 162.499C511.985 161.518 512.553 160.551 513.225 159.692C513.878 158.859 514.623 158.077 515.447 157.423C516.302 156.744 517.602 156.218 518.048 155.148C518.194 154.795 518.091 154.411 517.712 154.283L517.718 154.276Z" fill="#44426E"/>
<path d="M517.706 159.038C517.48 159.038 517.279 159.114 517.065 159.191C516.851 159.268 516.638 159.352 516.442 159.473C516.222 159.608 515.99 159.743 515.789 159.916C515.636 160.05 515.49 160.204 515.343 160.358C515.026 160.691 514.726 161.031 514.482 161.428C514.36 161.627 514.214 161.825 514.14 162.05C514.11 162.139 514.085 162.229 514.061 162.319C514.024 162.447 514.024 162.562 514.03 162.684C514.037 162.876 514.201 162.998 514.379 162.96C514.476 162.941 514.562 162.921 514.659 162.87C514.739 162.825 514.824 162.78 514.904 162.736C515.099 162.62 515.276 162.441 515.453 162.293C515.459 162.287 515.459 162.293 515.459 162.287C515.459 162.287 515.459 162.287 515.477 162.274C515.514 162.242 515.551 162.216 515.587 162.184C515.697 162.095 515.801 162.005 515.905 161.909C516.058 161.768 516.21 161.627 516.369 161.486C516.442 161.422 516.522 161.358 516.595 161.294C516.668 161.236 516.747 161.178 516.821 161.114C516.967 160.986 517.095 160.826 517.23 160.685C517.376 160.537 517.505 160.377 517.633 160.21C517.773 160.037 517.926 159.871 518.024 159.672C518.152 159.403 517.999 159.044 517.682 159.05L517.706 159.038Z" fill="#44426E"/>
<path d="M537.702 175.188C537.506 175.278 537.421 175.463 537.329 175.649C537.238 175.848 537.146 176.04 537.067 176.245C537.067 176.258 537.055 176.277 537.048 176.284C537.03 176.322 537.012 176.367 536.993 176.406C536.957 176.489 536.914 176.572 536.871 176.649C536.78 176.822 536.676 176.982 536.584 177.149C536.493 177.309 536.395 177.463 536.291 177.617C536.267 177.649 536.243 177.675 536.224 177.707C536.163 177.784 536.096 177.86 536.029 177.937C535.907 178.072 535.778 178.2 535.638 178.322C535.626 178.335 535.473 178.456 535.589 178.367C535.662 178.309 535.65 178.315 535.54 178.405C535.443 178.469 535.363 178.559 535.308 178.674C535.253 178.751 535.198 178.828 535.156 178.911C535.003 179.219 535.009 179.578 535.217 179.86C535.43 180.148 535.736 180.225 536.072 180.168C536.603 180.071 537 179.597 537.317 179.174C537.647 178.738 537.946 178.277 538.135 177.751C538.294 177.309 538.392 176.829 538.422 176.361C538.453 175.957 538.294 174.919 537.696 175.201L537.702 175.188Z" fill="#44426E"/>
<path d="M542.305 172.964C542.25 172.849 542.073 172.881 542.043 173.003C541.524 175.252 541.127 177.534 539.943 179.527C539.369 180.495 538.679 181.379 537.867 182.135C537.024 182.924 536.053 183.475 535.492 184.539C535.357 184.795 535.467 185.173 535.76 185.237C537.146 185.545 538.294 184.667 539.265 183.725C540.205 182.815 541.011 181.732 541.603 180.546C542.733 178.277 543.465 175.361 542.299 172.964H542.305Z" fill="#44426E"/>
<path d="M434.249 13.2558C433.406 13.8967 433.058 14.8773 432.619 15.845C432.118 16.9409 431.636 18.0432 431.159 19.1455C430.213 21.3566 429.322 23.5997 428.497 25.862C426.837 30.3995 425.396 35.0203 424.168 39.7051C421.72 49.0812 420.157 58.7138 419.504 68.4103C419.315 71.1725 419.205 73.9475 419.168 76.7162C419.15 78.0748 419.15 79.4399 419.168 80.7986C419.186 82.0739 419.07 83.4006 419.547 84.5862C419.644 84.8298 419.968 84.7208 420.035 84.5157C420.377 83.4518 420.224 82.3431 420.206 81.2344C420.182 79.9718 420.182 78.7093 420.188 77.4404C420.206 75.0114 420.285 72.5761 420.42 70.1535C420.688 65.3469 421.183 60.5595 421.903 55.8041C423.332 46.3959 425.622 37.1288 428.748 28.1885C429.657 25.5865 430.634 23.0101 431.672 20.4658C432.185 19.216 432.71 17.9728 433.254 16.7359C433.736 15.6464 434.42 14.5633 434.395 13.3328C434.395 13.2559 434.31 13.1918 434.243 13.243L434.249 13.2558Z" fill="white"/>
<path d="M465.21 81.4716C465.186 80.177 465.137 78.8824 465.076 77.5878C464.966 75.1973 464.807 72.8133 464.606 70.4292C464.203 65.7123 463.629 61.0082 462.89 56.3361C461.388 46.8959 459.159 37.5967 456.247 28.5282C455.429 25.9775 454.544 23.4524 453.603 20.9465C452.669 18.4471 451.802 15.7874 450.441 13.5059C450.343 13.3456 450.099 13.4482 450.142 13.6405C450.715 15.9348 451.705 18.1203 452.498 20.3441C453.304 22.5808 454.055 24.8303 454.788 27.099C456.247 31.6301 457.542 36.2188 458.659 40.8524C460.887 50.0747 462.481 59.47 463.348 68.9423C463.592 71.6212 463.781 74.3065 463.916 76.9918C463.977 78.2864 464.026 79.581 464.074 80.8756C464.117 82.1189 463.958 83.4519 464.539 84.5671C464.606 84.7016 464.807 84.7016 464.874 84.5671C465.357 83.5801 465.228 82.5611 465.21 81.4716Z" fill="white"/>
<defs>
<linearGradient id="paint0_linear_150_508" x1="657.17" y1="124.885" x2="-104.506" y2="308.913" gradientUnits="userSpaceOnUse">
<stop stop-color="#F5EAFF"/>
<stop offset="1" stop-color="#ABB1C4"/>
</linearGradient>
<linearGradient id="paint1_linear_150_508" x1="852.548" y1="123.608" x2="90.8759" y2="307.646" gradientUnits="userSpaceOnUse">
<stop stop-color="#F5EAFF"/>
<stop offset="1" stop-color="#ABB1C4"/>
</linearGradient>
<linearGradient id="paint2_linear_150_508" x1="1240.31" y1="123" x2="478.635" y2="307.037" gradientUnits="userSpaceOnUse">
<stop stop-color="#F5EAFF"/>
<stop offset="1" stop-color="#ABB1C4"/>
</linearGradient>
<linearGradient id="paint3_linear_150_508" x1="1051.77" y1="123.689" x2="290.101" y2="307.727" gradientUnits="userSpaceOnUse">
<stop stop-color="#F5EAFF"/>
<stop offset="1" stop-color="#ABB1C4"/>
</linearGradient>
<linearGradient id="paint4_linear_150_508" x1="1442.44" y1="123.581" x2="680.766" y2="307.618" gradientUnits="userSpaceOnUse">
<stop stop-color="#F5EAFF"/>
<stop offset="1" stop-color="#ABB1C4"/>
</linearGradient>
<linearGradient id="paint5_linear_150_508" x1="1636.6" y1="122.307" x2="874.924" y2="306.345" gradientUnits="userSpaceOnUse">
<stop stop-color="#F5EAFF"/>
<stop offset="1" stop-color="#ABB1C4"/>
</linearGradient>
</defs>
</svg>
