<svg width="34" height="32" viewBox="0 0 34 32" fill="none" xmlns="http://www.w3.org/2000/svg">
<g opacity="0.9">
<path fillRule="evenodd" clipRule="evenodd" d="M9.99127 0.095625C11.8046 0.0177051 12.3826 0 17 0C21.6183 0 22.1954 0.0185889 24.0077 0.095625C25.8182 0.172661 27.0546 0.442715 28.1359 0.836719C29.2701 1.23705 30.2976 1.86431 31.1468 2.67485C32.0115 3.4709 32.6806 4.43419 33.1075 5.49755C33.5277 6.51135 33.8149 7.67037 33.898 9.36682C33.9811 11.0668 34 11.6087 34 15.9375C34 20.2663 33.9802 20.8081 33.898 22.5082C33.8158 24.2046 33.5277 25.3637 33.1075 26.3774C32.6731 27.425 32.0912 28.3147 31.1468 29.2001C30.2977 30.0107 29.2701 30.6381 28.1359 31.0383C27.0546 31.4322 25.8182 31.7014 24.0088 31.7794C22.1954 31.8573 21.6174 31.875 17 31.875C12.3826 31.875 11.8046 31.8565 9.99127 31.7794C8.18173 31.7023 6.94544 31.4322 5.86406 31.0383C4.74677 30.631 3.79761 30.0855 2.85317 29.2001C1.98844 28.4041 1.31932 27.4408 0.8925 26.3774C0.472229 25.3637 0.185115 24.2046 0.102 22.5082C0.0188854 20.8081 0 20.2671 0 15.9375C0 11.6078 0.0198282 11.0668 0.102 9.36771C0.184172 7.67037 0.472229 6.51135 0.8925 5.49755C1.31952 4.43426 1.9886 3.47101 2.85317 2.67485C3.70228 1.86417 4.72979 1.23687 5.86406 0.836719C6.94544 0.442715 8.18173 0.173545 9.99127 0.095625ZM23.8699 2.96438C22.0773 2.88822 21.539 2.8714 17 2.8714C12.461 2.8714 11.9227 2.88822 10.1301 2.96438C8.47261 3.03521 7.57256 3.29463 6.97377 3.51333C6.18044 3.80198 5.61377 4.14728 5.01877 4.7051C4.42473 5.26291 4.05544 5.79417 3.74756 6.53791C3.51427 7.09927 3.23756 7.94308 3.162 9.49698C3.08077 11.1775 3.06283 11.6822 3.06283 15.9375C3.06283 20.1928 3.08077 20.6975 3.162 22.378C3.23756 23.9319 3.51427 24.7757 3.74756 25.3371C4.0199 26.0294 4.45429 26.6556 5.01877 27.17C5.56725 27.6991 6.23531 28.1064 6.97377 28.3617C7.57256 28.5804 8.47261 28.8398 10.1301 28.9106C11.9227 28.9868 12.4601 29.0036 17 29.0036C21.5399 29.0036 22.0773 28.9868 23.8699 28.9106C25.5274 28.8398 26.4274 28.5804 27.0263 28.3617C27.8196 28.073 28.3863 27.7278 28.9813 27.17C29.5457 26.6558 29.9801 26.0294 30.2524 25.3371C30.4858 24.7757 30.7624 23.9319 30.838 22.378C30.9193 20.6975 30.9372 20.1928 30.9372 15.9375C30.9372 11.6822 30.9193 11.1775 30.838 9.49698C30.7624 7.94308 30.4858 7.09927 30.2524 6.53791C29.9446 5.79417 29.5763 5.26291 28.9813 4.7051C28.3863 4.14818 27.8196 3.80198 27.0263 3.51333C26.4274 3.29463 25.5274 3.03521 23.8699 2.96438ZM14.8294 20.8505C15.5176 21.1178 16.2551 21.2553 17 21.2553C18.5045 21.2553 19.9472 20.695 21.0109 19.6977C22.0748 18.7005 22.6724 17.3478 22.6724 15.9375C22.6724 14.5272 22.0748 13.1745 21.0109 12.1772C19.9472 11.18 18.5045 10.6197 17 10.6197C16.2551 10.6197 15.5176 10.7572 14.8294 11.0245C14.1411 11.2917 13.5158 11.6834 12.9891 12.1772C12.4624 12.671 12.0445 13.2572 11.7595 13.9024C11.4744 14.5476 11.3277 15.2391 11.3277 15.9375C11.3277 16.6359 11.4744 17.3274 11.7595 17.9726C12.0445 18.6178 12.4624 19.204 12.9891 19.6977C13.5158 20.1915 14.1411 20.5833 14.8294 20.8505ZM10.8214 10.145C12.46 8.60868 14.6826 7.74561 17 7.74561C19.3176 7.74561 21.5401 8.60868 23.1787 10.145C24.8174 11.6812 25.738 13.7649 25.738 15.9375C25.738 18.1101 24.8174 20.1937 23.1787 21.7301C21.5401 23.2663 19.3176 24.1294 17 24.1294C14.6826 24.1294 12.46 23.2663 10.8214 21.7301C9.18266 20.1937 8.26205 18.1101 8.26205 15.9375C8.26205 13.7649 9.18266 11.6812 10.8214 10.145ZM27.6755 8.96612C28.0628 8.60296 28.2804 8.11043 28.2804 7.59687C28.2804 7.08329 28.0628 6.59076 27.6755 6.22762C27.2881 5.86448 26.7628 5.66046 26.2149 5.66046C25.6672 5.66046 25.1418 5.86448 24.7545 6.22762C24.367 6.59076 24.1494 7.08329 24.1494 7.59687C24.1494 8.11043 24.367 8.60296 24.7545 8.96612C25.1418 9.32926 25.6672 9.53328 26.2149 9.53328C26.7628 9.53328 27.2881 9.32926 27.6755 8.96612Z" fill="#E5E5E5"/>
</g>
</svg>
