<svg width="37" height="28" viewBox="0 0 37 28" fill="none" xmlns="http://www.w3.org/2000/svg">
<g opacity="0.9">
<path d="M33.5312 0H3.46875C1.55299 0 0 1.55299 0 3.46875V24.2812C0 26.197 1.55299 27.75 3.46875 27.75H33.5312C35.447 27.75 37 26.197 37 24.2812V3.46875C37 1.55299 35.447 0 33.5312 0ZM33.5312 3.46875V6.41755C31.9109 7.73705 29.3277 9.78881 23.8052 14.1131C22.5882 15.0704 20.1774 17.3703 18.5 17.3435C16.8229 17.3706 14.4113 15.0701 13.1948 14.1131C7.67316 9.78946 5.08931 7.73726 3.46875 6.41755V3.46875H33.5312ZM3.46875 24.2812V10.8686C5.12464 12.1875 7.47292 14.0383 11.0522 16.8411C12.6317 18.0844 15.3978 20.8291 18.5 20.8124C21.587 20.8291 24.318 18.1242 25.9472 16.8416C29.5264 14.039 31.8753 12.1877 33.5312 10.8687V24.2812H3.46875Z" fill="#E5E5E5"/>
</g>
</svg>
