<svg width="32" height="32" viewBox="0 0 32 32" fill="none" xmlns="http://www.w3.org/2000/svg">
<path d="M11.3465 16.64C11.0828 16.64 10.825 16.7182 10.6057 16.8647C10.3864 17.0112 10.2155 17.2195 10.1146 17.4631C10.0137 17.7067 9.9873 17.9748 10.0387 18.2335C10.0902 18.4921 10.2172 18.7297 10.4036 18.9162C10.5901 19.1026 10.8277 19.2296 11.0863 19.2811C11.345 19.3325 11.6131 19.3061 11.8567 19.2052C12.1003 19.1043 12.3086 18.9334 12.4551 18.7141C12.6016 18.4948 12.6798 18.2371 12.6798 17.9733C12.6798 17.6197 12.5393 17.2806 12.2893 17.0305C12.0392 16.7805 11.7001 16.64 11.3465 16.64ZM11.3465 10.6667C11.0828 10.6667 10.825 10.7449 10.6057 10.8914C10.3864 11.0379 10.2155 11.2461 10.1146 11.4898C10.0137 11.7334 9.9873 12.0015 10.0387 12.2601C10.0902 12.5188 10.2172 12.7563 10.4036 12.9428C10.5901 13.1293 10.8277 13.2563 11.0863 13.3077C11.345 13.3592 11.6131 13.3328 11.8567 13.2318C12.1003 13.1309 12.3086 12.96 12.4551 12.7408C12.6016 12.5215 12.6798 12.2637 12.6798 12C12.6798 11.6464 12.5393 11.3072 12.2893 11.0572C12.0392 10.8072 11.7001 10.6667 11.3465 10.6667ZM15.9998 13.3333C15.6462 13.3333 15.307 13.4738 15.057 13.7239C14.8069 13.9739 14.6665 14.3131 14.6665 14.6667V16C14.6665 16.3536 14.8069 16.6928 15.057 16.9428C15.307 17.1929 15.6462 17.3333 15.9998 17.3333C16.3534 17.3333 16.6926 17.1929 16.9426 16.9428C17.1926 16.6928 17.3331 16.3536 17.3331 16V14.6667C17.3331 14.3131 17.1926 13.9739 16.9426 13.7239C16.6926 13.4738 16.3534 13.3333 15.9998 13.3333ZM27.3331 11.4267C26.8732 11.162 26.3651 10.9915 25.8386 10.9252C25.3122 10.8588 24.7777 10.8978 24.2665 11.04C23.7344 11.1825 23.2389 11.4371 22.8131 11.7867L7.34646 2.84001C7.14377 2.72299 6.91384 2.66138 6.67979 2.66138C6.44574 2.66138 6.21582 2.72299 6.01313 2.84001C5.80717 2.95578 5.63568 3.12419 5.51619 3.32801C5.39671 3.53184 5.33353 3.76375 5.33313 4.00001V21.56C4.54627 21.8254 3.86402 22.3339 3.38476 23.012C2.90549 23.6902 2.65397 24.503 2.66646 25.3333C2.66609 26.376 3.07284 27.3776 3.80007 28.1247C4.5273 28.8719 5.51752 29.3055 6.55979 29.3333H7.33313C11.7021 29.3231 15.9906 28.1569 19.7632 25.9534C23.5357 23.7498 26.658 20.5872 28.8131 16.7867C29.3109 15.8773 29.4361 14.8103 29.1625 13.8104C28.8889 12.8105 28.2378 11.9559 27.3465 11.4267H27.3331ZM7.99979 6.30668L21.1865 13.92C19.7235 16.103 17.7678 17.9113 15.4771 19.1991C13.1865 20.4869 10.6251 21.218 7.99979 21.3333V6.30668ZM26.4931 15.48C24.5137 18.9676 21.623 21.851 18.1304 23.8216C14.6379 25.7922 10.6751 26.7757 6.66646 26.6667C6.31284 26.6667 5.9737 26.5262 5.72365 26.2762C5.4736 26.0261 5.33313 25.687 5.33313 25.3333C5.33208 25.1547 5.36695 24.9777 5.43567 24.8127C5.50438 24.6478 5.60554 24.4984 5.73313 24.3733C5.98361 24.1319 6.31856 23.9979 6.66646 24H7.34646C10.7701 23.9986 14.1319 23.0881 17.0883 21.3616C20.0447 19.6351 22.4896 17.1545 24.1731 14.1733C24.2541 14.0271 24.3647 13.8994 24.4978 13.7983C24.631 13.6973 24.7838 13.6252 24.9465 13.5867C25.2827 13.4944 25.6416 13.5375 25.9465 13.7067C26.2524 13.8711 26.4821 14.1484 26.5866 14.4796C26.6912 14.8108 26.6625 15.1697 26.5065 15.48H26.4931Z" fill="#E46A12"/>
</svg>
