<svg width="40" height="40" viewBox="0 0 40 40" fill="none" xmlns="http://www.w3.org/2000/svg">
<path d="M26.1838 21.1833C27.8178 19.8978 29.0105 18.1349 29.5959 16.1399C30.1813 14.1449 30.1304 12.0171 29.4501 10.0524C28.7699 8.08778 27.4942 6.38399 25.8006 5.17809C24.107 3.9722 22.0796 3.32417 20.0005 3.32417C17.9214 3.32417 15.894 3.9722 14.2004 5.17809C12.5067 6.38399 11.2311 8.08778 10.5508 10.0524C9.87062 12.0171 9.81967 14.1449 10.4051 16.1399C10.9905 18.1349 12.1832 19.8978 13.8172 21.1833C11.0173 22.3051 8.5743 24.1656 6.74864 26.5665C4.92298 28.9675 3.78309 31.8188 3.45048 34.8167C3.42641 35.0355 3.44568 35.257 3.50719 35.4684C3.56871 35.6799 3.67126 35.8771 3.809 36.0489C4.08718 36.3958 4.49179 36.618 4.93382 36.6667C5.37584 36.7153 5.81908 36.5863 6.16602 36.3081C6.51297 36.03 6.73519 35.6254 6.78382 35.1833C7.14979 31.9253 8.70329 28.9164 11.1475 26.7313C13.5917 24.5463 16.7553 23.3384 20.0338 23.3384C23.3123 23.3384 26.4759 24.5463 28.9201 26.7313C31.3643 28.9164 32.9178 31.9253 33.2838 35.1833C33.3291 35.5929 33.5245 35.9711 33.8323 36.245C34.1401 36.519 34.5385 36.6692 34.9505 36.6667H35.1338C35.5707 36.6164 35.97 36.3955 36.2448 36.0521C36.5195 35.7087 36.6473 35.2706 36.6005 34.8333C36.2663 31.827 35.1203 28.9683 33.2852 26.5637C31.4502 24.159 28.9953 22.2991 26.1838 21.1833ZM20.0005 20C18.6819 20 17.393 19.609 16.2967 18.8765C15.2004 18.1439 14.3459 17.1027 13.8413 15.8846C13.3367 14.6664 13.2047 13.3259 13.4619 12.0327C13.7191 10.7395 14.3541 9.55164 15.2864 8.61929C16.2188 7.68694 17.4067 7.052 18.6999 6.79477C19.9931 6.53753 21.3335 6.66955 22.5517 7.17414C23.7699 7.67872 24.8111 8.5332 25.5436 9.62953C26.2762 10.7259 26.6672 12.0148 26.6672 13.3333C26.6672 15.1014 25.9648 16.7971 24.7145 18.0474C23.4643 19.2976 21.7686 20 20.0005 20Z" fill="#1B1B1B"/>
</svg>
