<svg width="25" height="26" viewBox="0 0 25 26" fill="none" xmlns="http://www.w3.org/2000/svg">
<rect width="25" height="26" fill="#C1B6B6"/>
<g id="home" clip-path="url(#clip0_0_1)">
<rect width="1440" height="7471" transform="translate(-1108 -7172)" fill="white"/>
<g id="footer">
<g id="Group 64">
<rect id="Rectangle 97" x="-1108" y="-96" width="1440" height="299" fill="black" fill-opacity="0.75"/>
</g>
<g id="Group 68">
<path id="Vector" opacity="0.9" d="M18.9143 15.7727L16.8233 16.9507C16.5724 17.092 16.2821 17.1472 15.9968 17.108C15.7115 17.0688 15.4469 16.9374 15.2433 16.7337L8.26435 9.75469C8.06081 9.55103 7.92944 9.28641 7.89026 9.00116C7.85108 8.71591 7.90625 8.42567 8.04735 8.17469L9.22535 6.08369C9.43739 5.70735 9.52041 5.27194 9.46173 4.84399C9.40304 4.41603 9.20587 4.01905 8.90035 3.71369L5.76635 0.579686C5.58266 0.395909 5.36457 0.250123 5.12452 0.150659C4.88448 0.0511945 4.62718 0 4.36735 0C4.10751 0 3.85022 0.0511945 3.61018 0.150659C3.37013 0.250123 3.15204 0.395909 2.96835 0.579686L1.54535 2.00169C0.713222 2.8338 0.183173 3.92022 0.0394849 5.08821C-0.104203 6.2562 0.146717 7.4387 0.752349 8.44769L1.46635 9.63769C5.11259 15.7146 10.2591 20.7527 16.4123 24.2687L16.5533 24.3497C18.6553 25.5507 21.2523 25.2007 22.9353 23.5187L24.4213 22.0327C24.6051 21.849 24.7509 21.6309 24.8504 21.3909C24.9498 21.1508 25.001 20.8935 25.001 20.6337C25.001 20.3738 24.9498 20.1166 24.8504 19.8765C24.7509 19.6365 24.6051 19.4184 24.4213 19.2347L21.2853 16.0987C20.98 15.7928 20.5829 15.5953 20.1547 15.5364C19.7266 15.4775 19.2909 15.5605 18.9143 15.7727Z" fill="#E5E5E5"/>
</g>
</g>
</g>
<defs>
<clipPath id="clip0_0_1">
<rect width="1440" height="7471" fill="white" transform="translate(-1108 -7172)"/>
</clipPath>
</defs>
</svg>
