<svg width="9" height="9" viewBox="0 0 9 9" fill="none" xmlns="http://www.w3.org/2000/svg">
<path fillRule="evenodd" clipRule="evenodd" d="M8.59085 3.09827C8.65755 3.15268 8.70773 3.22619 8.73532 3.30988C8.75657 3.39355 8.75471 3.48182 8.72997 3.56443C8.70522 3.64704 8.6586 3.7206 8.59551 3.77656L6.7911 5.60671L7.228 8.20553C7.2436 8.29131 7.23543 8.37997 7.20446 8.46104C7.1735 8.54211 7.12102 8.61222 7.05324 8.66307C6.97827 8.7199 6.88801 8.75034 6.79546 8.75C6.72506 8.75024 6.65581 8.73132 6.59449 8.69509L4.36627 7.46889L2.12932 8.69052C2.05756 8.73036 1.97663 8.74847 1.89559 8.74281C1.81456 8.73715 1.73663 8.70795 1.67056 8.65849C1.60278 8.60764 1.55031 8.53754 1.51934 8.45646C1.48837 8.37539 1.4802 8.28673 1.4958 8.20095L1.93271 5.60214L0.128288 3.77199C0.0721276 3.7133 0.0322879 3.6397 0.0130449 3.55909C-0.00619807 3.47849 -0.00411794 3.39391 0.0190621 3.31445C0.0443851 3.23314 0.0909664 3.16088 0.15352 3.10589C0.216073 3.05089 0.292094 3.01536 0.372955 3.00333L2.85895 2.61899L3.97306 0.258101C4.00883 0.180745 4.06469 0.115506 4.13423 0.0698584C4.20378 0.0242106 4.28419 0 4.36627 0C4.44835 0 4.52876 0.0242106 4.59831 0.0698584C4.66785 0.115506 4.72371 0.180745 4.75949 0.258101L5.87359 2.62357L8.35959 3.00333C8.44382 3.01087 8.52416 3.04385 8.59085 3.09827Z" fill="#E46A12"/>
</svg>
