<svg width="9" height="9" viewBox="0 0 9 9" fill="none" xmlns="http://www.w3.org/2000/svg">
<path d="M8.73532 3.30988C8.70773 3.22619 8.65755 3.15268 8.59085 3.09827C8.52416 3.04385 8.44382 3.01087 8.35959 3.00333L5.87359 2.62357L4.75949 0.258101C4.72371 0.180745 4.66785 0.115506 4.59831 0.0698584C4.52876 0.0242106 4.44835 0 4.36627 0C4.28419 0 4.20378 0.0242106 4.13423 0.0698584C4.06469 0.115506 4.00883 0.180745 3.97306 0.258101L2.85895 2.61899L0.372955 3.00333C0.292094 3.01536 0.216073 3.05089 0.15352 3.10589C0.0909664 3.16088 0.0443851 3.23314 0.0190621 3.31445C-0.00411794 3.39391 -0.00619807 3.47849 0.0130449 3.55909C0.0322879 3.6397 0.0721276 3.7133 0.128288 3.77199L1.93271 5.60214L1.4958 8.20095C1.4802 8.28673 1.48837 8.37539 1.51934 8.45646C1.55031 8.53754 1.60278 8.60764 1.67056 8.65849C1.73663 8.70795 1.81456 8.73715 1.89559 8.74281C1.97663 8.74847 2.05756 8.73036 2.12932 8.69052L4.36627 7.46889L6.59449 8.69509C6.65581 8.73132 6.72506 8.75024 6.79546 8.75C6.88801 8.75034 6.97827 8.7199 7.05324 8.66307C7.12102 8.61222 7.1735 8.54211 7.20446 8.46104C7.23543 8.37997 7.2436 8.29131 7.228 8.20553L6.7911 5.60671L8.59551 3.77656C8.6586 3.7206 8.70522 3.64704 8.72997 3.56443C8.75472 3.48182 8.75657 3.39355 8.73532 3.30988ZM6.04836 5.14003C5.99712 5.19193 5.95878 5.25617 5.9367 5.32715C5.91461 5.39813 5.90945 5.47369 5.92165 5.54724L6.23623 7.46432L4.59346 6.54924C4.53025 6.51399 4.45973 6.49556 4.38812 6.49556C4.3165 6.49556 4.24598 6.51399 4.18277 6.54924L2.54001 7.46432L2.85458 5.54724C2.86678 5.47369 2.86162 5.39813 2.83953 5.32715C2.81745 5.25617 2.77911 5.19193 2.72788 5.14003L1.41716 3.76741L3.25653 3.48832C3.32731 3.47801 3.39459 3.44967 3.45248 3.4058C3.51037 3.36193 3.5571 3.30385 3.58858 3.23667L4.36627 1.49345L5.18765 3.24125C5.21913 3.30843 5.26586 3.3665 5.32375 3.41038C5.38164 3.45425 5.44892 3.48258 5.5197 3.49289L7.35907 3.77199L6.04836 5.14003Z" fill="#E46A12"/>
</svg>
