<svg width="9" height="9" viewBox="0 0 9 9" fill="none" xmlns="http://www.w3.org/2000/svg">
<path fill-rule="evenodd" clip-rule="evenodd" d="M8.60254 3.10366C8.66933 3.15816 8.71958 3.2318 8.74721 3.31563C8.76849 3.39945 8.76663 3.48787 8.74185 3.57063C8.71707 3.65338 8.67038 3.72707 8.60721 3.78313L6.80034 5.61647L7.23784 8.2198C7.25346 8.30573 7.24528 8.39454 7.21427 8.47576C7.18326 8.55697 7.13071 8.6272 7.06284 8.67813C6.98777 8.73507 6.89739 8.76556 6.80471 8.76522C6.73421 8.76546 6.66487 8.74651 6.60346 8.71022L4.37221 7.48188L2.13221 8.70563C2.06036 8.74554 1.97932 8.76368 1.89817 8.75801C1.81703 8.75235 1.739 8.7231 1.67284 8.67355C1.60496 8.62261 1.55242 8.55239 1.52141 8.47117C1.4904 8.38996 1.48222 8.30114 1.49784 8.21522L1.93534 5.61188L0.128463 3.77855C0.0722257 3.71976 0.0323319 3.64603 0.0130627 3.56528C-0.00620651 3.48454 -0.00412354 3.39982 0.019088 3.32022C0.0444455 3.23876 0.0910902 3.16638 0.153729 3.11129C0.216367 3.0562 0.292492 3.02061 0.373463 3.00855L2.86284 2.62355L3.97846 0.25855C4.01429 0.18106 4.07022 0.115707 4.13986 0.0699799C4.2095 0.0242527 4.29003 0 4.37221 0C4.4544 0 4.53493 0.0242527 4.60456 0.0699799C4.6742 0.115707 4.73014 0.18106 4.76596 0.25855L5.88159 2.62813L8.37096 3.00855C8.45531 3.01611 8.53576 3.04915 8.60254 3.10366ZM5.94478 5.33641C5.96689 5.26531 6.00528 5.20096 6.05659 5.14897L7.36909 3.77855L5.52721 3.49897C5.45634 3.48864 5.38896 3.46026 5.331 3.41631C5.27303 3.37236 5.22623 3.31418 5.19471 3.24688L4.37222 1.49607V6.50743C4.3795 6.50705 4.38679 6.50686 4.39409 6.50686C4.4658 6.50686 4.53641 6.52532 4.59971 6.56063L6.24471 7.4773L5.92971 5.55688C5.91749 5.48321 5.92266 5.40751 5.94478 5.33641Z" fill="#E46A12"/>
</svg>
