<svg width="17" height="23" viewBox="0 0 17 23" fill="none" xmlns="http://www.w3.org/2000/svg">
<path d="M8.5 0C6.24566 0 4.08365 0.968524 2.48959 2.69251C0.895533 4.41649 0 6.75471 0 9.1928C0 15.3979 7.49063 22.4074 7.80938 22.7062C8.00183 22.8842 8.24675 22.9821 8.5 22.9821C8.75325 22.9821 8.99817 22.8842 9.19062 22.7062C9.5625 22.4074 17 15.3979 17 9.1928C17 6.75471 16.1045 4.41649 14.5104 2.69251C12.9163 0.968524 10.7543 0 8.5 0ZM8.5 20.2816C6.23688 17.9834 2.125 13.0308 2.125 9.1928C2.125 7.36423 2.79665 5.61057 3.99219 4.31758C5.18774 3.02459 6.80925 2.2982 8.5 2.2982C10.1908 2.2982 11.8123 3.02459 13.0078 4.31758C14.2034 5.61057 14.875 7.36423 14.875 9.1928C14.875 13.0308 10.7631 17.9949 8.5 20.2816ZM8.5 4.5964C7.65943 4.5964 6.83774 4.86597 6.13883 5.37103C5.43992 5.87609 4.89518 6.59395 4.57351 7.43383C4.25184 8.27371 4.16768 9.19789 4.33166 10.0895C4.49565 10.9811 4.90042 11.8001 5.4948 12.4429C6.08917 13.0858 6.84645 13.5235 7.67087 13.7009C8.49529 13.8782 9.34982 13.7872 10.1264 13.4393C10.903 13.0914 11.5667 12.5023 12.0337 11.7464C12.5007 10.9905 12.75 10.1019 12.75 9.1928C12.75 7.97376 12.3022 6.80464 11.5052 5.94265C10.7082 5.08066 9.62717 4.5964 8.5 4.5964ZM8.5 11.491C8.07971 11.491 7.66887 11.3562 7.31941 11.1037C6.96996 10.8511 6.69759 10.4922 6.53676 10.0723C6.37592 9.65234 6.33384 9.19025 6.41583 8.74444C6.49782 8.29863 6.70021 7.88913 6.9974 7.56772C7.29459 7.24632 7.67322 7.02743 8.08543 6.93876C8.49764 6.85008 8.92491 6.89559 9.3132 7.06954C9.7015 7.24348 10.0334 7.53805 10.2669 7.91599C10.5004 8.29392 10.625 8.73825 10.625 9.1928C10.625 9.80232 10.4011 10.3869 10.0026 10.8179C9.60409 11.2489 9.06359 11.491 8.5 11.491Z" fill="black" fill-opacity="0.5"/>
</svg>
