<svg width="29" height="26" viewBox="0 0 29 26" fill="none"
    xmlns="http://www.w3.org/2000/svg">
    <path d="M6.69191 14.5281C6.51217 14.5932 6.34892 14.697 6.21375 14.8322C6.07858 14.9673 5.9748 15.1306 5.90974 15.3103C5.80438 15.5735 5.77859 15.8619 5.83556 16.1397C5.89254 16.4174 6.02977 16.6723 6.23026 16.8728C6.43075 17.0733 6.68567 17.2105 6.96341 17.2675C7.24116 17.3245 7.52952 17.2987 7.79275 17.1933C7.96828 17.12 8.12995 17.0171 8.27074 16.8891C8.39869 16.7484 8.50157 16.5867 8.57492 16.4112C8.65601 16.2393 8.69569 16.0507 8.6908 15.8607C8.68546 15.4772 8.53543 15.1099 8.27074 14.8323C8.06705 14.6313 7.8084 14.4952 7.52741 14.4411C7.24642 14.3869 6.9557 14.4172 6.69191 14.5281ZM25.7248 8.73428L23.7548 2.89697C23.4544 2.04705 22.897 1.31162 22.1599 0.792576C21.4229 0.273529 20.5427 -0.00344286 19.6412 3.2306e-05H9.32812C8.42666 -0.00344286 7.54643 0.273529 6.80938 0.792576C6.07234 1.31162 5.51496 2.04705 5.21448 2.89697L3.24456 8.77774C2.31802 9.02037 1.49759 9.56232 0.910838 10.3193C0.324084 11.0764 0.00387699 12.006 0 12.9638V18.7577C0.00251962 19.6542 0.282275 20.528 0.800913 21.2593C1.31955 21.9905 2.05168 22.5435 2.89693 22.8423V24.5515C2.89693 24.9357 3.04954 25.3041 3.32118 25.5758C3.59282 25.8474 3.96124 26 4.3454 26C4.72956 26 5.09798 25.8474 5.36962 25.5758C5.64126 25.3041 5.79386 24.9357 5.79386 24.5515V23.1031H23.1755V24.5515C23.1755 24.9357 23.3281 25.3041 23.5997 25.5758C23.8713 25.8474 24.2398 26 24.6239 26C25.0081 26 25.3765 25.8474 25.6481 25.5758C25.9198 25.3041 26.0724 24.9357 26.0724 24.5515V22.8423C26.9176 22.5435 27.6498 21.9905 28.1684 21.2593C28.687 20.528 28.9668 19.6542 28.9693 18.7577V12.9638C28.9654 12.006 28.6452 11.0764 28.0585 10.3193C27.4717 9.56232 26.6513 9.02037 25.7248 8.77774V8.73428ZM7.95208 3.8095C8.04925 3.5218 8.23438 3.27192 8.48131 3.09518C8.72823 2.91843 9.02446 2.82376 9.32812 2.82454H19.6412C19.9571 2.80805 20.2696 2.89541 20.5312 3.07326C20.7927 3.25112 20.9889 3.50969 21.0897 3.8095L22.6106 8.61841H6.35877L7.95208 3.8095ZM26.0724 18.7577C26.0724 19.1418 25.9198 19.5103 25.6481 19.7819C25.3765 20.0535 25.0081 20.2061 24.6239 20.2061H4.3454C3.96124 20.2061 3.59282 20.0535 3.32118 19.7819C3.04954 19.5103 2.89693 19.1418 2.89693 18.7577V12.9638C2.89693 12.5796 3.04954 12.2112 3.32118 11.9396C3.59282 11.6679 3.96124 11.5153 4.3454 11.5153H24.6239C25.0081 11.5153 25.3765 11.6679 25.6481 11.9396C25.9198 12.2112 26.0724 12.5796 26.0724 12.9638V18.7577ZM21.1766 14.5281C20.9968 14.5932 20.8336 14.697 20.6984 14.8322C20.5632 14.9673 20.4595 15.1306 20.3944 15.3103C20.289 15.5735 20.2632 15.8619 20.3202 16.1397C20.3772 16.4174 20.5144 16.6723 20.7149 16.8728C20.9154 17.0733 21.1703 17.2105 21.4481 17.2675C21.7258 17.3245 22.0142 17.2987 22.2774 17.1933C22.4572 17.1283 22.6204 17.0245 22.7556 16.8893C22.8907 16.7541 22.9945 16.5909 23.0596 16.4112C23.1407 16.2393 23.1804 16.0507 23.1755 15.8607C23.1701 15.4772 23.0201 15.1099 22.7554 14.8323C22.5517 14.6313 22.2931 14.4952 22.0121 14.4411C21.7311 14.3869 21.4404 14.4172 21.1766 14.5281ZM15.9331 14.4123H13.0362C12.652 14.4123 12.2836 14.5649 12.012 14.8365C11.7403 15.1082 11.5877 15.4766 11.5877 15.8607C11.5877 16.2449 11.7403 16.6133 12.012 16.885C12.2836 17.1566 12.652 17.3092 13.0362 17.3092H15.9331C16.3173 17.3092 16.6857 17.1566 16.9573 16.885C17.229 16.6133 17.3816 16.2449 17.3816 15.8607C17.3816 15.4766 17.229 15.1082 16.9573 14.8365C16.6857 14.5649 16.3173 14.4123 15.9331 14.4123Z" fill="#808080"/>
</svg>
