<svg width="34" height="28" viewBox="0 0 34 28" fill="none" xmlns="http://www.w3.org/2000/svg">
<g opacity="0.9">
<path d="M33.9352 3.29269C32.6846 3.84094 31.3459 4.21812 29.9349 4.38919C31.3746 3.52538 32.4753 2.159 33.0002 0.53125C31.6497 1.3175 30.1559 1.887 28.5674 2.20894C27.3009 0.853187 25.4904 0 23.4813 0C19.6297 0 16.5081 3.12056 16.5081 6.96681C16.5081 7.52037 16.575 8.05163 16.6908 8.55525C10.897 8.28431 5.76088 5.50056 2.32581 1.29519C1.72231 2.31944 1.37912 3.50944 1.37912 4.80463C1.37912 7.22819 2.61269 9.35319 4.47737 10.6027C3.33731 10.5697 2.26419 10.2542 1.32387 9.73463V9.81856C1.32387 13.1984 3.72513 16.0161 6.91262 16.6579C6.33144 16.8119 5.71094 16.9012 5.08087 16.9012C4.63356 16.9012 4.20644 16.8576 3.78038 16.779C4.67712 19.5457 7.24412 21.5603 10.3041 21.6208C7.92519 23.4855 4.90981 24.5969 1.66069 24.5969C1.10712 24.5969 0.554625 24.5703 0 24.5034C3.09931 26.4796 6.7575 27.6356 10.7089 27.6356C23.5301 27.6356 30.5363 17.0159 30.5363 7.81894C30.5363 7.52569 30.5362 7.22713 30.5139 6.9275C31.8814 5.95319 33.065 4.71856 34 3.31925L33.9352 3.29269Z" fill="#E5E5E5"/>
</g>
</svg>
